<svg width="32" height="32" viewBox="0 0 32 32" fill="none" xmlns="http://www.w3.org/2000/svg">
<g clip-path="url(#clip0_20_378)">
<path d="M0 15.9996C0 18.7714 0.705188 21.3786 1.94544 23.6517L16 25.0431L30.0546 23.6517C31.2948 21.3786 32 18.7714 32 15.9996C32 13.2277 31.2948 10.6206 30.0546 8.34737L16 6.95605L1.94544 8.34737C0.705188 10.6206 0 13.2277 0 15.9996H0Z" fill="#D80027"/>
<path d="M1.94531 8.34781H30.0544C27.3407 3.37431 22.0646 0 15.9999 0C9.93519 0 4.659 3.37431 1.94531 8.34781Z" fill="#0052B4"/>
<path d="M15.9999 32.0002C22.0646 32.0002 27.3407 28.6258 30.0544 23.6523H1.94531C4.659 28.6258 9.93519 32.0002 15.9999 32.0002Z" fill="#0052B4"/>
<path d="M21.5651 19.1304V17.0435H20.1739V14.2609L18.7826 12.8695L17.3913 14.2609V11.4782L16 10.0869L14.6086 11.4782V14.2609L13.2173 12.8695L11.826 14.2609V17.0435H10.4348V19.1304H9.04346V21.2174H22.9565V19.1304H21.5651Z" fill="#F0F0F0"/>
</g>
<defs>
<clipPath id="clip0_20_378">
<rect width="32" height="32" fill="white"/>
</clipPath>
</defs>
</svg>
