<svg width="32" height="32" viewBox="0 0 32 32" fill="none" xmlns="http://www.w3.org/2000/svg">
<g clip-path="url(#clip0_20_384)">
<path d="M16 32C24.8366 32 32 24.8366 32 16C32 7.16344 24.8366 0 16 0C7.16344 0 0 7.16344 0 16C0 24.8366 7.16344 32 16 32Z" fill="#D80027"/>
<path d="M8.75625 9.73828L10.1375 13.9883H14.6062L10.9937 16.6195L12.375 20.8695L8.75625 18.2445L5.1375 20.8695L6.525 16.6195L2.90625 13.9883H7.375L8.75625 9.73828Z" fill="#FFDA44"/>
<path d="M18.9689 24.7816L17.9127 23.4816L16.3502 24.0879L17.2564 22.6816L16.2002 21.3754L17.8189 21.8066L18.7314 20.4004L18.8189 22.0754L20.4439 22.5066L18.8752 23.1066L18.9689 24.7816Z" fill="#FFDA44"/>
<path d="M21.0689 20.9691L21.5689 19.3691L20.2002 18.4004L21.8752 18.3754L22.3689 16.7754L22.9127 18.3629L24.5877 18.3441L23.2439 19.3441L23.7814 20.9316L22.4127 19.9629L21.0689 20.9691Z" fill="#FFDA44"/>
<path d="M23.8998 11.7439L23.1623 13.2502L24.3623 14.4189L22.7061 14.1814L21.9686 15.6814L21.6811 14.0314L20.0186 13.7939L21.5061 13.0127L21.2186 11.3564L22.4186 12.5252L23.8998 11.7439Z" fill="#FFDA44"/>
<path d="M19.0124 7.18164L18.8874 8.85039L20.4437 9.48164L18.8124 9.88164L18.6937 11.5566L17.8124 10.1316L16.1812 10.5316L17.2624 9.25039L16.3749 7.83164L17.9312 8.46289L19.0124 7.18164Z" fill="#FFDA44"/>
</g>
<defs>
<clipPath id="clip0_20_384">
<rect width="32" height="32" fill="white"/>
</clipPath>
</defs>
</svg>
