<svg width="44" height="32" viewBox="0 0 44 32" fill="none" xmlns="http://www.w3.org/2000/svg">
<g id="euro">
<rect width="44" height="32" rx="3" fill="#1A47B8"/>
<g id="Europe">
<path id="United Kingdom" d="M15.8192 19.7874C15.664 19.6366 15.4622 19.8739 15.2981 19.8694C15.2715 19.9892 15.2272 20.0756 15.185 20.1067C15.1207 20.1532 14.9988 20.3306 15.0919 20.3484C15.185 20.3661 15.3336 20.5169 15.3536 20.4038C15.3713 20.2929 15.4378 20.1422 15.5952 20.3284C15.6329 20.3728 15.6817 20.4149 15.7327 20.4526C15.7593 20.3683 15.9544 20.3528 16.0542 20.2508C16.1784 20.1266 15.9921 19.9493 15.8192 19.783V19.7874ZM19.1961 21.3173C19.2094 21.1311 18.8014 21.0025 18.757 21.1022C18.7149 21.1998 18.6218 21.1887 18.5531 21.0778C18.4843 20.967 18.6151 20.8628 18.5464 20.8495C18.4777 20.8362 18.3912 20.6832 18.4112 20.6211C18.4289 20.559 18.3069 20.1643 18.0963 20.1155C17.8857 20.0668 17.8546 19.7697 17.8191 19.61C17.7814 19.4504 17.6462 19.5368 17.542 19.3994C17.4378 19.2641 17.2582 19.3306 17.165 19.3373C17.0719 19.3439 17.1651 19.1643 17.3136 19.0668C17.4622 18.967 17.6351 18.4437 17.6351 18.3373C17.6351 18.2309 16.9877 18.2375 16.8635 18.2996C16.7393 18.3617 16.6174 18.2065 16.7216 18.1644C16.8258 18.1222 17.0498 17.9049 17.0365 17.8185C17.0254 17.732 17.1917 17.6522 17.0985 17.5724C17.0054 17.4925 16.9943 17.6766 16.9123 17.7387C16.8325 17.8007 16.6529 17.7808 16.4622 17.7453C16.2715 17.7076 16.1961 17.9803 16.2028 18.0978C16.2094 18.2154 15.981 18.2841 16.0187 18.3817C16.0564 18.4814 15.9766 18.5546 15.9145 18.4992C15.8524 18.4437 15.7859 18.3085 15.6617 18.406C15.5376 18.5058 15.8037 18.6344 15.9633 18.6522C16.1229 18.6699 15.8391 18.7874 15.8081 18.9604C15.777 19.1333 16.0187 19.0579 16.0298 19.1821C16.0431 19.3063 15.6839 19.324 15.6839 19.4415C15.6839 19.559 15.8879 19.3861 15.981 19.3373C16.0742 19.2885 15.9323 19.6278 16.154 19.5901C16.3757 19.5524 16.3136 19.2508 16.3957 19.2641C16.4755 19.2752 16.358 19.4238 16.4267 19.5546C16.4954 19.6854 16.2671 19.8827 16.2781 19.9736C16.2914 20.0668 16.7349 20.0668 16.8768 19.9182C17.0187 19.7697 17.0874 19.9315 16.9877 20.0424C16.8879 20.1532 16.9322 20.2575 17.0564 20.3018C17.1806 20.3439 17.2227 20.3572 17.1673 20.457C17.1118 20.5546 17.1606 20.7408 17.1296 20.8339C17.0985 20.9271 16.7149 20.9138 16.7039 20.8517C16.6906 20.7896 16.5309 20.8339 16.5753 20.9204C16.6174 21.0069 16.44 21.1 16.4511 21.1798C16.4644 21.2597 16.6928 21.2419 16.6972 21.3395C16.7039 21.437 16.5309 21.5545 16.2959 21.6233C16.0609 21.6898 16.3447 21.8761 16.4555 21.7962C16.5664 21.7164 16.542 21.8517 16.7016 21.8517C16.8613 21.8517 16.9611 21.9803 17.1407 21.9137C17.3203 21.845 17.3136 21.9137 17.1784 22.018C17.0431 22.1222 16.8391 22.0113 16.7149 22.08C16.5908 22.1466 16.0897 22.6188 16.185 22.7341C16.2405 22.8029 16.3136 22.6366 16.4932 22.5612C16.6728 22.488 16.7039 22.61 16.8014 22.6233C16.9012 22.6366 16.9056 22.4193 16.9877 22.437C17.0675 22.4548 17.1429 22.3683 17.2892 22.3949C17.4378 22.4193 17.542 22.3638 17.6174 22.3018C17.6905 22.2397 17.8879 22.4259 17.95 22.3816C18.012 22.3395 18.2825 22.2885 18.42 22.2951C18.5553 22.3018 18.9078 22.1399 19.0009 22.0534C19.0941 21.967 18.9455 21.9492 18.8213 21.967C18.6972 21.9847 18.7216 21.8428 18.8524 21.7208C18.981 21.5967 19.185 21.5058 19.1983 21.3195L19.1961 21.3173ZM15.4866 18.2176C15.6529 18.2109 15.8436 17.9271 15.7637 17.8473C15.6839 17.7675 15.3624 18.222 15.4866 18.2176ZM17.8746 16.8784C17.9788 16.7741 18.1029 16.3728 17.9433 16.415C17.7837 16.4571 17.8302 16.9227 17.8746 16.8784Z" fill="#C7DCFF"/>
<path id="Ukraine" d="M34.1872 24.0621C34.2515 24.0533 34.4466 23.8404 34.5109 23.8404C34.5752 23.8404 34.8523 23.8958 34.8523 23.8493C34.8523 23.8027 34.9455 23.6453 34.9255 23.5987C34.9078 23.5522 34.8147 23.4879 34.8324 23.4413C34.8501 23.3947 34.981 23.3947 34.981 23.3393C34.981 23.2839 34.879 23.2551 34.879 23.2196C34.879 23.1841 35.0076 23.1176 34.9987 23.0444C34.9898 22.9713 34.879 22.9602 34.757 22.8959C34.6373 22.8316 34.5153 22.8582 34.4045 22.8027C34.2936 22.7473 34.063 22.785 34.063 22.7473C34.063 22.7096 33.9144 22.5899 33.8768 22.5256C33.8391 22.4613 33.7193 22.4968 33.6462 22.5433C33.573 22.5899 33.5065 22.6076 33.4333 22.5611C33.3601 22.5145 33.2936 22.4413 33.2293 22.4679C33.165 22.4968 33.0431 22.4768 33.0719 22.3837C33.0985 22.2906 32.9522 22.0866 32.8879 22.06C32.8236 22.0311 32.6284 22.0777 32.5819 21.9868C32.5353 21.8937 32.4533 21.8205 32.4888 21.7562C32.5264 21.6919 32.4799 21.5145 32.4333 21.4413C32.3868 21.3682 32.1562 21.377 32.0919 21.4037C32.0276 21.4303 31.879 21.3748 31.8147 21.4125C31.7504 21.4502 31.7127 21.5145 31.6196 21.5145C31.5686 21.5145 31.5331 21.5079 31.5043 21.4657C31.4045 21.5101 31.236 21.519 31.236 21.519C31.236 21.519 30.9899 21.7163 30.9899 21.7895C30.9899 21.8626 30.9766 21.9868 30.9167 21.9247C30.8546 21.8626 30.5952 21.8626 30.5354 21.9003C30.4733 21.938 30.3757 21.7518 30.2626 21.8138C30.1518 21.8759 30.0032 21.7274 29.9899 21.7895C29.9788 21.8515 29.817 21.8028 29.7061 21.7518C29.5952 21.7008 29.3979 21.7762 29.3225 21.6897C29.2493 21.6032 28.766 21.6032 28.6063 21.6032C28.4467 21.6032 28.409 21.6897 28.3358 21.7651C28.2693 21.8316 28.1917 21.8183 28.1119 21.8161C28.1185 21.8781 28.1318 21.9336 28.1474 21.958C28.1851 22.0134 28.3602 22.2817 28.3137 22.3659C28.2671 22.4502 28.1851 22.4502 28.1274 22.5145C28.072 22.5788 27.7483 22.867 27.7394 22.9136C27.7305 22.9602 27.7948 23.1642 27.7483 23.2018C27.7017 23.2395 27.562 23.4324 27.562 23.5078C27.562 23.5832 27.664 23.683 27.7483 23.7118C27.7837 23.7229 27.8059 23.7406 27.8148 23.7606C27.8791 23.7517 27.9389 23.7473 27.9766 23.7473C28.0387 23.7473 28.3092 23.8205 28.3957 23.8205C28.4822 23.8205 28.6063 23.8582 28.6418 23.8936C28.6795 23.9313 28.766 23.9069 28.8281 23.8449C28.8902 23.7828 28.9633 23.8205 29.0387 23.8205C29.1141 23.8205 29.236 23.7584 29.2737 23.6963C29.3114 23.6342 29.6817 23.5344 29.7793 23.5234C29.879 23.51 30.0254 23.7096 30.1119 23.7096C30.1983 23.7096 30.358 23.7717 30.409 23.9313C30.4577 24.091 30.6063 24.2905 30.6684 24.3504C30.7305 24.4125 30.7659 24.5721 30.7659 24.6231C30.7659 24.6741 30.6307 24.6098 30.4821 24.5743C30.3336 24.5366 30.3225 24.6852 30.3225 24.7606C30.3225 24.836 30.1119 25.0932 30.0764 25.1442C30.0387 25.1929 30.1495 25.2306 30.236 25.2439C30.2737 25.2484 30.4223 25.1442 30.471 25.1442C30.491 25.1442 30.5531 25.1929 30.6174 25.2484C30.6041 25.0555 30.644 25.0666 30.8169 24.9357C30.9965 24.8005 31.0143 24.5477 31.1739 24.5167C31.3336 24.4856 31.4023 24.4125 31.6373 24.4479C31.8724 24.4856 31.5198 24.632 31.6795 24.7185C31.8391 24.8049 32.3335 24.6941 32.3579 24.816C32.3823 24.9402 31.7903 25.0621 31.8036 25.1242C31.8169 25.1863 32.1185 25.2484 32.2227 25.3149C32.3269 25.3814 32.1916 25.5743 32.2404 25.6364C32.2892 25.6985 32.4511 25.6497 32.5797 25.5566C32.7083 25.4634 32.8147 25.4945 32.981 25.3836C33.1473 25.2728 33.4932 25.3703 33.5375 25.3038C33.5796 25.2351 33.4377 25.1686 33.1185 25.1929C32.7969 25.2173 32.7792 24.9158 32.7792 24.8537C32.7792 24.7916 33.1118 24.5389 33.3047 24.5211C33.4954 24.5034 33.6506 24.4479 33.8346 24.3593C33.91 24.326 34.0408 24.2883 34.1739 24.2639C34.1539 24.1774 34.1273 24.0732 34.1827 24.0666L34.1872 24.0621Z" fill="#C7DCFF"/>
<path id="Switzerland" d="M22.7071 24.3948C22.6228 24.4325 22.4942 24.3216 22.4942 24.2839C22.4942 24.2573 22.4765 24.1664 22.4942 24.1088C22.4255 24.0733 22.3257 24.0245 22.2525 24.0024C22.1284 23.9647 22.0663 23.9647 21.9687 24.0134C21.9066 24.0445 21.7315 24.0356 21.614 24.0267C21.6029 24.0644 21.5874 24.0888 21.5585 24.0888C21.4743 24.0888 21.3634 24.1731 21.3457 24.264C21.3279 24.3571 21.1328 24.4303 21.0774 24.5966C21.022 24.7629 21.0508 24.836 21.1328 24.7363C21.2171 24.6343 21.3191 24.672 21.3191 24.754C21.3191 24.836 21.4299 24.8471 21.3922 24.958C21.3922 24.9602 21.3922 24.9624 21.3922 24.9646C21.5186 24.9536 21.6938 24.9403 21.7492 24.9403C21.8357 24.9403 21.9222 24.6698 21.9599 24.6431C21.9976 24.6188 22.0951 24.8405 22.1949 24.927C22.2947 25.0134 22.3058 24.8538 22.3058 24.7784C22.3058 24.703 22.3922 24.6786 22.4543 24.6919C22.5164 24.7052 22.6517 24.7296 22.6517 24.6431C22.6517 24.5567 22.7248 24.5944 22.7758 24.5944C22.8268 24.5944 22.8379 24.4946 22.8379 24.4946L22.9177 24.4192C22.8512 24.3859 22.7758 24.3638 22.7093 24.3926L22.7071 24.3948Z" fill="#C7DCFF"/>
<path id="Sweden" d="M28.3067 12.7541C28.2469 12.6942 28.1294 12.5368 28.2269 12.5368C28.3245 12.5368 28.3666 12.2397 28.2469 12.1798C28.1272 12.1199 28.2469 11.8627 28.1471 11.8029C28.0473 11.743 28.1072 11.5457 28.1272 11.406C28.1471 11.2663 27.7502 11.1488 27.5329 11.049C27.3156 10.9492 27.2159 10.7918 27.0363 10.692C26.8567 10.5923 26.799 10.8495 26.799 11.0091C26.799 11.1687 26.6394 11.1887 26.5219 11.0889C26.4021 10.9891 26.2647 11.0889 26.0851 11.0091C25.9055 10.9293 25.9853 11.1887 25.9853 11.3062C25.9853 11.4237 25.7857 11.4259 25.6682 11.4259C25.5507 11.4259 25.3512 11.5257 25.3512 11.6632C25.3512 11.8007 25.1716 11.8827 25.2314 11.9603C25.2913 12.0401 25.2115 12.1199 25.1316 12.1776C25.0518 12.2375 24.972 12.4348 24.9121 12.4947C24.8523 12.5545 24.952 12.6543 24.8323 12.7319C24.7126 12.8117 24.5751 12.7519 24.5152 12.8117C24.4554 12.8716 24.5152 13.0091 24.4953 13.1887C24.4753 13.366 24.3356 13.5656 24.2181 13.723C24.0984 13.8804 24.258 13.9204 24.3179 13.9403C24.3778 13.9603 24.3778 14.06 24.3179 14.1776C24.258 14.2973 24.1206 14.2175 24.0408 14.1975C23.9609 14.1776 23.7436 14.2773 23.6239 14.4747C23.5042 14.672 23.5441 14.7917 23.584 14.8915C23.6239 14.9913 23.4842 15.111 23.584 15.3084C23.6838 15.5057 23.5441 15.5456 23.564 15.7053C23.584 15.8627 23.8212 15.8449 23.8412 16.0024C23.8612 16.1598 23.7614 16.2197 23.6816 16.2197C23.6017 16.2197 23.6217 16.3793 23.7015 16.417C23.7813 16.4569 23.7614 16.7341 23.7215 16.8139C23.6816 16.8937 23.4244 16.8139 23.4443 16.9137C23.4643 17.0134 23.3844 17.1709 23.3844 17.2507C23.3844 17.3305 23.3645 17.5877 23.2847 17.5278C23.2536 17.5034 23.2026 17.5034 23.1539 17.5101C23.1539 17.5234 23.1539 17.5345 23.1539 17.55C23.1472 17.7052 23.2026 17.8582 23.3401 17.9691C23.4754 18.0799 23.3711 18.2462 23.4887 18.4014C23.6062 18.5566 23.5685 18.6675 23.6993 18.7784C23.8279 18.8892 23.8412 18.9513 23.7858 19.0932C23.7303 19.2351 23.8966 19.1974 23.9033 19.2839C23.9099 19.3704 23.8656 19.55 23.9099 19.6364C23.9521 19.7229 24.0385 19.6364 24.2381 19.6298C24.4354 19.6231 24.3866 19.499 24.3933 19.3837C24.3999 19.2662 24.4975 19.3216 24.5219 19.2484C24.5463 19.1753 24.7259 19.1553 24.8678 19.2174C25.0097 19.2795 25.0829 19.1753 25.1095 19.0267C25.1339 18.8781 25.2137 19.0577 25.258 19.0888C25.3002 19.1198 25.431 18.8604 25.4931 18.6941C25.5551 18.5278 25.4864 18.5589 25.3445 18.7185C25.2026 18.8781 25.2824 18.5589 25.3378 18.428C25.3933 18.2972 25.3866 17.9225 25.4066 17.836C25.4243 17.7496 25.462 17.621 25.6416 17.5833C25.8212 17.5456 26.0562 17.3238 26.0185 17.2307C25.9809 17.1376 26.2647 16.9846 26.2647 16.8915C26.2647 16.7984 25.9675 16.5145 25.87 16.4525C25.7702 16.3904 25.5551 16.4392 25.5729 16.3726C25.5906 16.3039 25.5485 16.0401 25.5241 15.9026C25.4997 15.7673 25.6771 15.6254 25.6771 15.4946C25.6771 15.3638 25.6704 15.2175 25.788 15.1731C25.9055 15.131 25.8323 15.0179 25.9853 14.9824C26.1405 14.9447 26.1095 14.723 26.2758 14.6543C26.442 14.5855 26.4553 14.5301 26.6704 14.4259C26.8855 14.3217 27.2513 14.0734 27.3134 13.9447C27.3755 13.8161 27.0917 13.6787 27.2691 13.5434C27.4487 13.4082 27.3001 13.253 27.4287 13.2042C27.5573 13.1554 27.6083 13.0867 27.7014 12.9891C27.7946 12.8893 27.9165 12.9825 28.1405 12.947C28.2225 12.9337 28.2957 12.9403 28.3666 12.9559C28.3578 12.8583 28.3356 12.7763 28.3067 12.7496V12.7541ZM26.2203 18.1841C25.9853 18.1908 25.8766 18.652 25.9365 18.7274C25.9853 18.7895 26.4553 18.1775 26.2203 18.1841Z" fill="#C7DCFF"/>
<path id="Spain" d="M19.7981 26.7408C19.6495 26.7385 19.4833 26.7541 19.3702 26.7275C19.2349 26.6964 18.9489 26.6831 18.8735 26.6077C18.7981 26.5323 18.6784 26.4725 18.6784 26.5634C18.6784 26.6543 18.4677 26.6676 18.348 26.5944C18.2283 26.519 18.0332 26.4592 17.9423 26.3993C17.8957 26.3683 17.7981 26.3283 17.705 26.2818C17.5786 26.3062 17.2194 26.1731 16.9822 26.202C16.7294 26.233 15.9201 26.1643 15.6053 26.1887C15.2904 26.213 15.2727 26.0601 15.0997 26.0601C14.9268 26.0601 15.0022 26.2707 14.7538 26.2751C14.5077 26.2818 14.4833 26.437 14.6607 26.5789C14.7627 26.6587 14.7516 26.8317 14.7361 26.9869C14.7871 26.9802 14.8248 26.9669 14.847 26.9403C14.9224 26.8494 14.9977 26.8649 14.9977 26.9558C14.9977 27.0467 15.164 27.0157 15.2527 27.0157C15.3414 27.0157 15.3126 27.0911 15.4168 27.0157C15.5232 26.9403 15.6718 26.9713 15.6718 27.06C15.6718 27.1487 15.8979 27.1044 15.776 27.2263C15.6563 27.3461 15.5055 27.3771 15.5055 27.468C15.5055 27.5589 15.6407 27.754 15.5343 27.8583C15.4301 27.9625 15.5654 28.1443 15.4589 28.1443C15.3525 28.1443 15.2328 28.1886 15.3547 28.3084C15.4745 28.4281 15.5654 28.5345 15.4745 28.5345C15.3835 28.5345 15.3237 28.7141 15.368 28.7607C15.4124 28.805 15.623 28.9403 15.4589 28.9713C15.2926 29.0024 15.2926 29.1354 15.2926 29.2263C15.2926 29.2596 15.3193 29.3106 15.3525 29.3616C15.4301 29.3482 15.5055 29.346 15.5742 29.3771C15.7472 29.4569 15.847 29.887 16.0798 29.8582C16.1795 29.8449 16.1285 29.7717 16.1795 29.723C16.2283 29.6742 16.3214 29.7097 16.4212 29.7097C16.521 29.7097 16.5698 29.5678 16.8048 29.5611C17.0398 29.5545 17.1884 29.5367 17.3347 29.5434C17.4833 29.55 17.6008 29.5012 17.6363 29.3948C17.674 29.2906 17.7959 29.1975 17.9644 29.1731C18.1307 29.1487 18.1063 28.9757 18.1196 28.876C18.1329 28.7762 18.4101 28.6299 18.4278 28.5545C18.4456 28.4813 18.2682 28.1975 18.4345 27.9425C18.6008 27.6897 18.7804 27.6764 18.7804 27.5345C18.7804 27.4037 18.9533 27.3549 19.164 27.3305C19.3746 27.3062 19.4411 27.1643 19.6207 27.0889C19.7715 27.0268 19.8247 26.9159 19.7937 26.7385L19.7981 26.7408ZM19.8336 28.0911C19.8025 27.8804 19.379 28.1531 19.4699 28.2152C19.6562 28.3394 19.8646 28.3017 19.8336 28.0911Z" fill="#C7DCFF"/>
<path id="Slovenia" d="M23.8333 25.0931C23.9331 25.0532 24.0439 25.0377 24.0993 25.0598C24.1481 25.0798 24.1637 25.1308 24.1725 25.184C24.2568 25.1707 24.4142 25.1463 24.4674 25.1264C24.5406 25.0975 24.7091 25.1907 24.7268 25.1352C24.7446 25.0798 24.8 24.949 24.8754 24.949C24.9508 24.949 24.9042 24.7539 24.9774 24.745C25.0505 24.7361 25.2368 24.5698 25.2368 24.5698C25.2368 24.5698 25.1636 24.4213 25.1348 24.4124C25.106 24.4035 25.0151 24.5055 24.8488 24.5055C24.6825 24.5055 24.5628 24.6364 24.4874 24.6364C24.412 24.6364 24.1814 24.5632 24.024 24.5521C23.9685 24.5499 23.9109 24.5454 23.8577 24.5388C23.8421 24.6785 23.8244 24.8958 23.8355 25.0931H23.8333Z" fill="#C7DCFF"/>
<path id="Slovakia" d="M27.1572 23.0467C27.0198 23.06 26.951 22.978 26.8402 23.0201C26.7293 23.0622 26.5497 23.0201 26.481 22.978C26.4122 22.9359 26.3302 23.06 26.2326 23.0046C26.2105 22.9913 26.1927 22.9758 26.1772 22.9558C26.0952 23.0024 25.9954 23.0689 25.9355 23.1554C25.8202 23.3217 25.6539 23.3372 25.5386 23.3549C25.4921 23.3616 25.4522 23.4214 25.4233 23.4902C25.461 23.5877 25.532 23.7452 25.614 23.8205C25.7382 23.9314 26.1794 23.9159 26.1794 23.8205C26.1794 23.7252 26.5386 23.6831 26.6207 23.6831C26.7027 23.6831 26.9665 23.4214 27.0065 23.4347C27.0486 23.448 27.3235 23.4902 27.3923 23.5589C27.4255 23.5922 27.5386 23.6276 27.6539 23.652C27.6051 23.6099 27.5674 23.5545 27.5674 23.5079C27.5674 23.4347 27.7071 23.2396 27.7537 23.2019C27.7581 23.1997 27.7581 23.1931 27.7625 23.1886C27.6561 23.1731 27.5408 23.1509 27.5186 23.1288C27.4765 23.0866 27.2969 23.0334 27.1594 23.0467H27.1572Z" fill="#C7DCFF"/>
<path id="Serbia" d="M27.6599 26.1463C27.5668 26.0621 27.5757 25.9157 27.6599 25.8581C27.7442 25.8027 27.6688 25.7295 27.6688 25.6364C27.6688 25.5432 27.2697 25.5166 27.2054 25.4967C27.1411 25.4789 27.252 25.2373 27.15 25.2373C27.048 25.2373 27.0103 25.1641 27.0103 25.0887C27.0103 25.0133 26.8529 24.8936 26.8617 24.847C26.8617 24.8404 26.8684 24.8337 26.8728 24.8293C26.8152 24.8204 26.7708 24.8138 26.7553 24.8093C26.6866 24.796 26.5757 24.7539 26.5757 24.7539C26.5757 24.7539 26.3185 24.8382 26.1411 24.8914C26.1522 25 26.181 25.1175 26.2498 25.1441C26.3828 25.1951 26.3318 25.326 26.3828 25.4435C26.4316 25.561 26.4161 26.0909 26.3495 26.0909C26.3207 26.0909 26.2564 26.1596 26.1943 26.2461C26.2852 26.337 26.4271 26.5033 26.5225 26.6208C26.5269 26.6208 26.5313 26.6164 26.5358 26.6164C26.6178 26.6164 26.9216 26.8381 26.9216 26.8381C26.9216 26.8381 27.3517 26.7494 27.64 26.7073C27.6444 26.663 27.6533 26.612 27.6488 26.5809C27.64 26.5255 27.7043 26.4146 27.7885 26.4146C27.8728 26.4146 27.7508 26.2284 27.6599 26.1463Z" fill="#C7DCFF"/>
<path id="Romania" d="M30.241 25.2396C30.1545 25.2263 30.0437 25.1908 30.0814 25.1398C30.0836 25.1376 30.088 25.131 30.0925 25.1265C29.9772 25.0334 29.9461 24.7297 30.0193 24.6565C30.1146 24.5611 29.8685 24.2042 29.7554 24.0711C29.7022 24.009 29.5869 23.8028 29.4805 23.6011C29.3829 23.6321 29.2965 23.6676 29.2787 23.6964C29.241 23.7585 29.1191 23.8206 29.0437 23.8206C28.9683 23.8206 28.8951 23.7829 28.8331 23.845C28.771 23.9071 28.6845 23.9314 28.6468 23.8938C28.6091 23.8561 28.4872 23.8206 28.4007 23.8206C28.3142 23.8206 28.0437 23.7474 27.9816 23.7474C27.9439 23.7474 27.8863 23.7518 27.8198 23.7607C27.8331 23.7873 27.822 23.8206 27.7799 23.8516C27.7067 23.9071 27.5581 23.9913 27.5027 24.0268C27.4473 24.0645 27.2522 24.5279 27.1236 24.6565C26.995 24.7873 26.873 24.805 26.8641 24.8516C26.8553 24.8982 27.0127 25.0179 27.0127 25.0933C27.0127 25.1687 27.0504 25.2418 27.1524 25.2418C27.2544 25.2418 27.1435 25.4835 27.2078 25.5013C27.2721 25.519 27.6712 25.5478 27.6712 25.6409C27.6712 25.7141 27.7156 25.774 27.6956 25.8228C27.8065 25.8427 27.8907 25.9935 27.9328 25.9824C27.9816 25.9691 28.3164 26.0445 28.3763 26.0312C28.4384 26.0179 28.7222 26.0312 28.8198 26.0445C28.9195 26.0578 29.0304 26.0068 29.1169 25.9203C29.2033 25.8338 29.5115 25.8205 29.6113 25.8338C29.7089 25.8472 29.9084 25.8715 29.9439 25.9314C29.9639 25.9647 30.0791 26.0134 30.1967 26.0511C30.21 25.9891 30.1922 25.9092 30.1967 25.8316C30.2033 25.7008 30.2765 25.5035 30.4073 25.4924C30.5381 25.4791 30.6423 25.4791 30.6224 25.264C30.6224 25.2551 30.6224 25.2507 30.6224 25.2441C30.5581 25.1886 30.496 25.1398 30.476 25.1398C30.4273 25.1398 30.2787 25.2441 30.241 25.2396Z" fill="#C7DCFF"/>
<path id="Portugal" d="M15.4667 28.9668C15.633 28.9357 15.4224 28.8005 15.3758 28.7561C15.3315 28.7118 15.3913 28.53 15.4822 28.53C15.5732 28.53 15.4823 28.4257 15.3625 28.3038C15.2428 28.1841 15.3625 28.1397 15.4667 28.1397C15.5709 28.1397 15.4357 27.9601 15.5421 27.8537C15.6463 27.7495 15.5133 27.5521 15.5133 27.4635C15.5133 27.3748 15.6641 27.3437 15.7838 27.2218C15.9035 27.102 15.6796 27.1464 15.6796 27.0555C15.6796 26.9646 15.5288 26.9358 15.4246 27.0111C15.3204 27.0865 15.3492 27.0111 15.2605 27.0111C15.1718 27.0111 15.0055 27.0422 15.0055 26.9513C15.0055 26.8604 14.9302 26.8471 14.8548 26.9358C14.8326 26.9624 14.7949 26.9757 14.7439 26.9823C14.7328 27.0998 14.7217 27.2107 14.755 27.2661C14.8348 27.3969 14.6552 28.0821 14.4956 28.2661C14.3359 28.4524 14.4889 28.5011 14.6552 28.6297C14.8215 28.7606 14.7106 29.2284 14.7106 29.3393C14.7106 29.4501 14.8592 29.4191 15.0321 29.4191C15.1364 29.4191 15.2517 29.3747 15.3647 29.3526C15.3315 29.3016 15.3049 29.2506 15.3049 29.2173C15.3049 29.1264 15.3049 28.9934 15.4712 28.9623L15.4667 28.9668Z" fill="#C7DCFF"/>
<path id="Poland" d="M24.4001 20.5987C24.4268 20.6719 24.4556 20.9313 24.3913 21.0333C24.327 21.1353 24.3536 21.1619 24.4201 21.1996C24.4844 21.2373 24.5132 21.3304 24.5132 21.4036C24.5132 21.4768 24.5598 21.4679 24.5687 21.6253C24.5775 21.7827 24.6152 21.8936 24.6707 21.9579C24.715 22.0089 24.7061 22.0865 24.684 22.1442C24.7616 22.2018 24.848 22.2572 24.9256 22.2838C25.1185 22.3526 25.1873 22.408 25.2006 22.4767C25.2139 22.5455 25.3802 22.6696 25.4223 22.5743C25.4644 22.4767 25.5731 22.5322 25.6573 22.5322C25.7416 22.5322 25.7549 22.6275 25.7682 22.683C25.7815 22.7384 25.9744 22.7096 26.0431 22.7517C26.1119 22.7938 26.1385 22.9446 26.236 23C26.3336 23.0555 26.4156 22.9313 26.4844 22.9734C26.5531 23.0155 26.7327 23.0555 26.8436 23.0155C26.9544 22.9734 27.0232 23.0577 27.1606 23.0421C27.2981 23.0288 27.4777 23.0843 27.5198 23.1242C27.542 23.1464 27.6573 23.1685 27.7637 23.1841C27.7903 23.1286 27.7371 22.9535 27.746 22.9113C27.7549 22.8648 28.0786 22.5787 28.134 22.5122C28.1894 22.4479 28.2737 22.4479 28.3203 22.3637C28.3668 22.2794 28.1917 22.0111 28.154 21.9557C28.1163 21.9003 28.0985 21.6785 28.1274 21.5854C28.154 21.4923 27.9877 21.4369 27.9877 21.3726C27.9877 21.3083 28.1451 21.1974 28.2294 21.1597C28.3136 21.122 28.2848 20.8626 28.2116 20.7983C28.1384 20.734 28.1007 20.612 28.1473 20.4834C28.1939 20.3548 27.8702 20.2528 27.8236 20.2528C27.8147 20.2528 27.8125 20.244 27.8081 20.2329C27.5198 20.2861 26.7793 20.2085 26.7216 20.1863C26.6861 20.1708 26.5908 20.1375 26.511 20.1087C26.4733 20.1708 26.3979 20.2262 26.2826 20.2262C26.103 20.2262 26.0919 20.0466 26.0853 19.9668C26.0786 19.887 25.3624 20.0333 25.1718 20.2262C24.9811 20.4169 24.5354 20.3438 24.5243 20.448C24.5154 20.5233 24.4489 20.5633 24.4046 20.5433C24.4024 20.561 24.4024 20.5788 24.4046 20.5943L24.4001 20.5987Z" fill="#C7DCFF"/>
<path id="Norway" d="M30.9703 10.1156C30.9459 10.2088 30.7796 10.1888 30.7841 10.0979C30.7907 10.0048 30.5246 9.9316 30.5113 9.88725C30.498 9.84513 30.6222 9.84956 30.722 9.90499C30.8218 9.96042 30.8883 9.92273 30.9991 9.81852C31.11 9.71431 31.2652 9.80078 31.2829 9.70765C31.3007 9.61453 31.1033 9.55245 31.0679 9.49702C31.0302 9.44159 30.8883 9.3662 30.753 9.39281C30.6178 9.4172 30.6111 9.36176 30.5313 9.28859C30.4515 9.21542 30.2031 9.33737 30.2031 9.51032C30.2031 9.68327 30.0479 9.64114 30.1034 9.54801C30.1588 9.45489 30.0302 9.34403 30.1521 9.31298C30.2763 9.28194 30.2076 9.09791 29.9792 9.07795C29.7508 9.06022 29.6644 9.2509 29.7198 9.31298C29.7752 9.37507 29.5646 9.64114 29.4737 9.64114C29.3828 9.64114 29.4847 9.41276 29.4803 9.28859C29.4737 9.16443 29.3872 9.23316 29.2142 9.4305C29.0413 9.62783 28.9127 9.80743 28.8129 9.82517C28.7131 9.84291 28.7264 9.64557 28.8861 9.5591C29.0457 9.47263 29.0524 9.2376 29.1566 9.2376C29.2608 9.2376 29.2608 9.11343 29.1078 9.07795C28.9526 9.04026 28.9282 9.21321 28.8794 9.2642C28.8307 9.31298 28.5779 9.17773 28.5823 9.22651C28.589 9.27529 28.4471 9.29525 28.5092 9.38615C28.5712 9.47928 28.4781 9.5591 28.416 9.44824C28.354 9.33737 28.201 9.42385 28.1256 9.54801C28.0524 9.67218 27.9526 9.66553 28.0258 9.70765C28.099 9.752 28.0945 9.91829 27.9837 9.94934C27.8728 9.98038 27.9149 9.64779 27.8307 9.67883C27.7442 9.70987 27.7996 9.51919 27.9172 9.51919C28.0347 9.51919 28.1522 9.34624 28.1389 9.30411C28.1189 9.23095 27.9903 9.24868 27.9903 9.34181C27.9903 9.43493 27.8041 9.41498 27.6511 9.41054C27.4959 9.40389 27.5025 9.59014 27.6755 9.6877C27.8484 9.78748 27.6444 9.84734 27.558 9.77417C27.4715 9.701 27.3362 9.73648 27.2431 9.78082C27.15 9.82295 27.4648 9.93603 27.4781 9.99146C27.4914 10.0469 27.3185 9.92273 27.2808 9.96707C27.2431 10.0114 27.0702 9.93603 27.0591 9.83182C27.0458 9.72761 26.7686 9.87395 26.9238 9.91164C27.079 9.94934 27.0236 10.0469 27.0236 10.1844C27.0236 10.3218 26.844 10.2154 26.8817 10.0979C26.9194 9.98038 26.7708 10.0048 26.6467 10.0802C26.5225 10.1533 26.6644 9.9449 26.6156 9.83847C26.5668 9.73426 26.4538 9.83847 26.3252 9.86286C26.1966 9.88725 26.1278 9.8939 26.2077 9.98038C26.2875 10.0669 26.2764 10.191 26.17 10.1711C26.0657 10.1533 26.0214 10.1711 26.0347 10.2708C26.048 10.3706 25.8995 10.375 25.8861 10.2886C25.8728 10.2021 25.6644 10.2265 25.6023 10.3263C25.5403 10.4238 25.3673 10.4992 25.3873 10.6101C25.405 10.7209 25.5425 10.5546 25.6533 10.5923C25.7642 10.63 25.6467 10.6855 25.7088 10.7409C25.7709 10.7963 25.7575 10.9316 25.6711 10.8518C25.5846 10.7719 25.4737 10.7475 25.456 10.8761C25.4383 11.0048 25.3451 10.8584 25.2698 10.7653C25.1966 10.6722 25.1212 10.9382 25.0414 10.8761C24.9616 10.8141 25.201 10.6234 25.1389 10.5303C25.0768 10.4371 25.0347 10.5857 24.8928 10.7276C24.7509 10.8695 24.5602 10.8628 24.6267 10.9316C24.6955 11.0003 24.4848 11.0358 24.4472 11.1533C24.4095 11.2708 24.119 11.3129 23.935 11.4371C23.7487 11.5613 23.9727 11.5679 24.0769 11.4504C24.1811 11.3329 24.2188 11.4016 24.3851 11.2952C24.5514 11.191 24.731 11.1045 24.793 11.1467C24.8551 11.1888 24.9593 11.2198 25.0392 11.109C25.119 10.9981 25.2188 11.0225 25.2986 11.0912C25.3784 11.16 25.1633 11.2154 25.2609 11.3129C25.3584 11.4127 25.1434 11.4682 25.1434 11.3817C25.1434 11.2952 25.0192 11.222 24.9771 11.3019C24.9327 11.3817 24.8596 11.4682 24.7797 11.4748C24.6999 11.4815 24.6134 11.63 24.6134 11.7764C24.6134 11.9227 24.4715 11.7764 24.4605 11.9072C24.4472 12.0358 24.2498 12.2641 24.0769 12.4327C23.9039 12.599 24.0636 12.6366 24.0081 12.7409C23.9527 12.8451 23.7487 12.7519 23.6822 12.7963C23.6135 12.8384 23.7199 13.0978 23.6268 13.1799C23.5336 13.2597 23.6268 13.3706 23.6268 13.4637C23.6268 13.5568 23.3851 13.4083 23.3673 13.5014C23.3496 13.5945 23.139 13.5701 23.0769 13.5945C23.0148 13.6189 23.2011 13.7674 23.3119 13.8539C23.4228 13.9404 23.2077 14.0091 23.1833 13.9094C23.1589 13.8096 23.0037 13.9714 22.813 14.0579C22.6224 14.1444 22.7022 14.3173 22.5536 14.324C22.4051 14.3306 22.4494 14.5657 22.3496 14.6388C22.2499 14.712 22.2765 14.4659 22.1213 14.4592C21.966 14.4526 21.9793 14.5634 22.0725 14.6943C22.1656 14.8229 21.9306 14.7253 21.8441 14.8362C21.7576 14.947 21.5115 14.8916 21.4428 14.9847C21.374 15.0778 21.629 15.0778 21.6645 15.151C21.7022 15.2242 21.4428 15.1887 21.3075 15.1577C21.1723 15.1266 21.21 15.3306 21.0858 15.3062C20.9616 15.2818 20.8086 15.4104 20.8951 15.4969C20.9816 15.5834 20.8264 15.5967 20.7399 15.539C20.6534 15.4836 20.5803 15.6189 20.5492 15.7253C20.5182 15.8295 20.7155 15.8871 20.7089 15.9359C20.7022 15.9847 20.5492 16.0645 20.6601 16.0911C20.7709 16.1155 20.6911 16.2153 20.6179 16.2463C20.5448 16.2774 20.5448 16.3506 20.6179 16.4437C20.6911 16.5368 20.4894 16.5545 20.5869 16.6964C20.6867 16.8383 20.7599 16.6587 20.802 16.7652C20.8441 16.8694 20.9616 16.7785 21.0991 16.6543C21.2343 16.5301 21.2853 16.7896 21.1723 16.7851C21.0614 16.7785 20.9306 16.8472 20.9572 16.9581C20.9816 17.0689 20.7842 17.0512 20.7909 16.9159C20.7976 16.7807 20.5625 16.9403 20.649 17.0401C20.7355 17.1377 20.6179 17.1953 20.6179 17.2862C20.6179 17.3771 20.7842 17.3594 20.853 17.2552C20.9217 17.151 21.0326 17.1754 21.0747 17.2796C21.1191 17.3838 20.9705 17.304 20.9705 17.4459C20.9705 17.5878 20.8774 17.4636 20.7976 17.5745C20.7177 17.6853 21.1124 17.8893 21.2366 17.9204C21.3607 17.9514 21.4782 18.0867 21.7244 18.0512C21.9705 18.0135 22.4405 17.5567 22.5026 17.4769C22.5647 17.3971 22.7 17.4902 22.7931 17.4148C22.8862 17.3417 22.8308 17.1488 22.8973 17.1133C22.966 17.0756 23.0015 17.3173 23.0636 17.3417C23.119 17.3638 23.1589 17.4082 23.1634 17.5301C23.2121 17.5235 23.2631 17.5257 23.2942 17.5479C23.374 17.6077 23.394 17.3505 23.394 17.2707C23.394 17.1909 23.4738 17.0335 23.4538 16.9337C23.4339 16.8339 23.6911 16.9137 23.731 16.8339C23.7709 16.7541 23.7908 16.4769 23.711 16.437C23.6312 16.3971 23.6112 16.2397 23.6911 16.2397C23.7709 16.2397 23.8684 16.1798 23.8507 16.0224C23.8308 15.8628 23.5935 15.8827 23.5736 15.7253C23.5536 15.5656 23.6933 15.5257 23.5935 15.3284C23.4937 15.1311 23.6334 15.0113 23.5935 14.9116C23.5536 14.8118 23.5137 14.6943 23.6334 14.4947C23.7531 14.2952 23.9704 14.1976 24.0503 14.2176C24.1301 14.2375 24.2676 14.3173 24.3274 14.1976C24.3873 14.0779 24.3873 13.9781 24.3274 13.9603C24.2676 13.9404 24.1101 13.9005 24.2276 13.7431C24.3474 13.5856 24.4848 13.3861 24.5048 13.2087C24.5248 13.0291 24.4649 12.8916 24.5248 12.8318C24.5846 12.7719 24.7221 12.8318 24.8418 12.7519C24.9616 12.6721 24.8618 12.5723 24.9216 12.5147C24.9815 12.4548 25.0613 12.2575 25.1412 12.1976C25.221 12.1378 25.2986 12.0579 25.2409 11.9803C25.1811 11.9005 25.3607 11.8207 25.3607 11.6832C25.3607 11.5458 25.558 11.446 25.6777 11.446C25.7975 11.446 25.9948 11.446 25.9948 11.3263C25.9948 11.2065 25.915 10.9493 26.0946 11.0291C26.2742 11.109 26.4116 11.0092 26.5314 11.109C26.6511 11.2087 26.8085 11.1888 26.8085 11.0291C26.8085 10.8695 26.8684 10.6123 27.0458 10.7121C27.0591 10.7209 27.0724 10.7276 27.0857 10.7365C27.1455 10.6034 27.2564 10.5192 27.3628 10.5325C27.5225 10.5524 27.62 10.8296 27.8196 10.8695C28.0169 10.9094 28.2165 10.9892 28.2763 10.8895C28.3362 10.7897 28.4759 10.9493 28.5934 10.9094C28.7131 10.8695 28.7131 11.1267 28.8307 10.9693C28.9504 10.8096 28.8107 10.7121 29.0103 10.732C29.2076 10.752 29.0901 10.5125 29.0901 10.375C29.0901 10.2376 29.3473 10.2154 29.3473 10.0979C29.3473 9.98038 29.7043 10.0779 29.7641 9.99812C29.824 9.91829 30.0213 9.85843 30.1012 9.99812C30.181 10.1378 30.518 10.1777 30.5379 10.2952C30.5468 10.3529 30.5379 10.4438 30.5379 10.528C30.5934 10.4726 30.6621 10.4327 30.7308 10.4327C30.855 10.4327 30.9659 10.2464 31.0767 10.2731C31.1699 10.293 31.2608 10.2775 31.2896 10.1223C31.1898 10.0602 31.0014 10.0513 30.9792 10.1356L30.9703 10.1156ZM23.5048 2.20225C23.68 2.23994 23.3186 2.43284 23.2631 2.61022C23.2077 2.78539 23.5403 2.94281 23.68 3.07363C23.8197 3.20445 24.1523 3.18449 24.272 3.11132C24.3917 3.03815 24.3562 2.77873 24.5137 2.7876C24.6711 2.79647 24.5868 2.64792 24.7177 2.60135C24.8463 2.55479 24.8662 2.72109 24.7553 2.8519C24.6445 2.9805 24.9505 2.97164 25.1168 2.81421C25.2831 2.65679 25.3207 2.80534 25.2831 2.9539C25.2454 3.10245 24.9039 3.0182 24.7842 3.18449C24.6644 3.35079 24.2942 3.22219 24.1256 3.40622C23.9594 3.59025 24.2742 3.60134 24.5048 3.55477C24.7354 3.50821 25.1722 3.4816 25.3385 3.51708C25.5048 3.55256 25.2365 3.6102 24.9593 3.6102C24.6822 3.6102 24.5891 3.69446 24.5979 3.76763C24.6068 3.8408 24.2099 3.68337 24.1899 3.85189C24.1722 4.01818 24.5602 4.08248 24.6068 4.18447C24.6534 4.28647 24.9128 4.19334 25.0148 4.23104C25.1168 4.26873 24.8485 4.3419 24.8108 4.38846C24.7731 4.43502 25.0968 4.49932 25.1522 4.59245C25.2077 4.68557 25.4383 4.63901 25.4294 4.50819C25.4183 4.34633 25.6334 3.86075 25.9105 3.75876C26.1877 3.65677 26.0303 3.56364 26.068 3.40622C26.1057 3.24879 26.3274 3.37739 26.2631 3.24879C26.1988 3.12019 26.2365 3.06254 26.4116 2.89625C26.5868 2.72995 26.6977 2.84969 26.9127 2.74769C27.1256 2.6457 27.2276 2.82086 26.997 2.84082C26.793 2.85634 26.895 3.09137 27.0613 3.15567C27.2276 3.21997 27.079 3.2754 27.2098 3.30422C27.3407 3.33305 27.303 3.52595 27.1367 3.70333C26.9704 3.87849 27.1832 3.91619 27.5358 3.78759C27.8883 3.65898 27.6644 3.89845 27.7664 4.00044C27.8684 4.10244 28.1455 3.92727 28.2941 3.74989C28.4426 3.57473 28.6644 3.60355 28.6555 3.50821C28.6466 3.40622 28.4892 3.37961 28.3584 3.43504C28.2298 3.49047 27.9039 3.45278 28.0169 3.35079C28.1278 3.24879 28.1101 3.16454 27.9438 3.18449C27.7775 3.20223 27.4804 3.12019 27.62 3.06476C27.7597 3.00933 27.518 2.82308 27.3894 2.83417C27.2608 2.84304 27.2963 2.69448 27.3052 2.59249C27.3141 2.49049 26.9349 2.44393 27.0081 2.40624C27.0812 2.36854 26.8507 2.2865 26.7952 2.35967C26.7398 2.43284 26.6289 2.4151 26.6289 2.30424C26.6289 2.19338 26.3518 2.21999 26.2409 2.23107C26.13 2.23994 26.1855 1.98939 26.0746 1.90735C25.9638 1.8231 25.8152 2.07365 25.7332 2.05591C25.6489 2.03817 25.7975 1.86966 25.844 1.7588C25.8906 1.64793 25.456 1.49938 25.4094 1.61024C25.3629 1.7211 25.2808 1.44395 25.1877 1.41512C25.0946 1.3863 25.17 1.59916 25.0857 1.61911C25.0015 1.63685 24.8906 1.7211 25.0303 1.81423C25.17 1.90735 25.3074 2.37076 25.2897 2.44393C25.272 2.5171 24.8463 2.11134 24.8263 1.91622C24.8086 1.7211 24.5957 1.56368 24.5381 1.70337C24.4826 1.84305 24.3252 1.89848 24.3718 2.03595C24.4183 2.17564 24.2609 2.21999 24.2609 2.10912C24.2609 1.99826 24.0303 1.86744 23.946 1.85857C23.8618 1.84971 24.1589 1.79427 24.2986 1.72997C24.4383 1.66567 24.1789 1.57255 24.0569 1.64572C23.9372 1.71889 23.7798 1.59916 23.7044 1.70115C23.629 1.80314 23.5381 1.70115 23.4073 1.67232C23.2787 1.6435 23.1656 1.85857 23.0747 1.82088C22.9815 1.78319 22.9261 2.00713 23.0747 2.23772C23.2232 2.46832 23.3341 2.16456 23.5092 2.20003L23.5048 2.20225ZM23.1257 2.95168C23.2365 2.9805 23.3208 3.16454 23.4228 3.15567C23.4693 3.15123 23.2654 2.92507 23.1456 2.79426C23.0259 2.66565 23.0348 2.53484 22.8685 2.5814C22.7022 2.62796 23.017 2.92286 23.1279 2.95168H23.1257ZM26.0702 1.45282C26.1544 1.51712 25.9327 1.51933 26.0236 1.61024C26.3008 1.8874 27.3939 1.57255 27.5424 1.6568C27.691 1.74106 26.6267 1.84305 26.6733 1.95392C26.7198 2.06478 27.589 2.1579 27.6555 2.08252C27.7198 2.00935 27.8684 2.23107 28.1566 2.24881C28.4426 2.26655 28.416 2.13795 28.6289 2.12908C28.8417 2.12021 29.1566 2.01822 29.1655 1.89848C29.1743 1.77875 29.7952 1.6302 29.7397 1.42621C29.6843 1.22222 29.0834 1.36191 28.9149 1.27765C28.7486 1.1934 28.3584 1.08254 28.2941 1.21335C28.2298 1.34195 28.1189 1.37965 28.0635 1.32422C28.0081 1.26878 28.0923 0.971672 27.8218 1.05593C27.5535 1.14018 27.8041 1.42621 27.7486 1.4639C27.6932 1.5016 27.4338 1.40847 27.4161 1.27765C27.3983 1.14905 27.1101 1.41734 27.0724 1.25992C27.0347 1.10249 26.6932 0.991627 26.6178 1.0005C26.5447 1.00937 26.691 1.11136 26.6445 1.18675C26.5979 1.25992 26.4139 1.11358 26.3385 1.10249C26.2653 1.09362 26.385 1.25992 26.3473 1.33308C26.3096 1.40625 26.1611 1.11136 26.0325 1.11136C25.9039 1.11136 25.9482 1.25992 25.8573 1.26878C25.7642 1.27765 25.9881 1.38852 26.0702 1.45503V1.45282Z" fill="#C7DCFF"/>
<path id="Netherlands" d="M20.3181 21.938C20.3935 21.8626 20.5265 21.9003 20.6019 21.9757C20.6773 22.0511 20.7904 22.071 20.9034 22.1841C20.9323 22.2129 20.9633 22.2396 20.9944 22.2639C21.0054 22.1841 21.0077 22.0267 21.0431 21.9447C21.0808 21.8582 21.0054 21.7473 21.0675 21.7473C21.1296 21.7473 21.3025 21.7473 21.3025 21.6365C21.3025 21.5256 21.3513 21.5633 21.389 21.5012C21.4267 21.4391 21.2782 21.315 21.2538 21.2795C21.2294 21.2418 21.3646 21.2307 21.4644 21.0821C21.4999 21.0289 21.4844 20.9181 21.4511 20.7983C21.4356 20.8427 21.4023 20.8737 21.3469 20.8405C21.2538 20.785 21.1119 20.8161 20.9278 20.8538C20.7438 20.8915 20.6862 21.0688 20.7549 21.1442C20.8236 21.2174 20.5753 21.2551 20.5576 21.1575C20.5398 21.0578 20.3536 21.1265 20.3669 21.2573C20.3802 21.3859 20.1629 21.4369 20.1762 21.5966C20.1895 21.7562 19.9789 21.9047 19.8436 21.9846C19.8214 21.9979 19.8015 22.0112 19.7793 22.0223C19.848 22.0533 19.9012 22.0755 19.9279 22.0755C20.0409 22.0755 20.2494 22.0178 20.3247 21.9424L20.3181 21.938Z" fill="#C7DCFF"/>
<path id="Moldova" d="M30.4144 23.9292C30.3656 23.7695 30.2038 23.7075 30.1173 23.7075C30.0308 23.7075 29.8823 23.5101 29.7847 23.5212C29.7315 23.5279 29.5985 23.5611 29.481 23.5988C29.5874 23.8006 29.7027 24.0068 29.7559 24.0689C29.869 24.1997 30.1151 24.5589 30.0198 24.6542C29.9466 24.7274 29.9754 25.0312 30.0929 25.1243C30.1461 25.0533 30.328 24.8249 30.328 24.7562C30.328 24.683 30.3413 24.5345 30.4876 24.57C30.6361 24.6077 30.7714 24.6697 30.7714 24.6187C30.7714 24.5677 30.7337 24.4081 30.6738 24.346C30.6118 24.2839 30.4632 24.0866 30.4144 23.927V23.9292Z" fill="#C7DCFF"/>
<path id="Macedonia" d="M27.0908 27.5134C27.0908 27.5134 27.0997 27.5089 27.1064 27.5067H27.1108C27.1108 27.5067 27.1263 27.5023 27.1352 27.5023H27.1396C27.1751 27.4979 27.2239 27.5023 27.2727 27.5001C27.2749 27.5001 27.2793 27.5001 27.2838 27.5001C27.2948 27.5001 27.3059 27.5001 27.317 27.4979H27.3303C27.3458 27.4956 27.3591 27.4934 27.3724 27.489C27.4833 27.4602 27.5121 27.3404 27.5676 27.3693C27.623 27.3981 27.9201 27.2451 27.9556 27.1897C27.96 27.183 27.9622 27.1764 27.9644 27.1697C27.9711 27.1276 27.8913 27.101 27.8824 27.0522C27.8735 26.9968 27.6784 26.8127 27.6518 26.7839C27.6452 26.7772 27.6429 26.7684 27.6429 26.7551V26.7506C27.6429 26.7373 27.6429 26.7218 27.6429 26.7063C27.3525 26.7484 26.9246 26.8371 26.9246 26.8371C26.9246 26.8371 26.9135 26.8305 26.9002 26.8194C26.8558 26.9613 26.827 27.1542 26.8558 27.254C26.8824 27.3515 26.9711 27.418 27.0975 27.5134H27.0908Z" fill="#C7DCFF"/>
<path id="Luxembourg" d="M21.0205 22.6565C20.9384 22.7031 20.863 22.8006 20.8741 23.0113C20.954 23.009 21.067 23.0179 21.1491 23.0423C21.1291 22.8139 21.0404 22.743 21.016 22.6964C21.0094 22.6831 21.0116 22.6698 21.0183 22.6565H21.0205Z" fill="#C7DCFF"/>
<path id="Lithuania" d="M27.3312 19.7296C27.3778 19.7939 27.5263 19.8494 27.5818 19.8228C27.6372 19.7939 27.8124 19.8871 27.8124 19.9602C27.8124 20.0334 27.7658 20.2574 27.8124 20.2574C27.8545 20.2574 28.1206 20.3394 28.1405 20.4525C28.2602 20.4547 28.3955 20.4613 28.4465 20.4746C28.5463 20.499 28.6061 20.4369 28.6571 20.3749C28.7059 20.3128 28.8789 20.2884 28.9298 20.2884C28.9808 20.2884 28.9786 20.1531 28.9919 20.0911C29.0052 20.029 29.1272 19.9181 29.2026 19.8937C29.2757 19.8693 29.2647 19.7829 29.3378 19.7829C29.411 19.7829 29.3999 19.6831 29.3866 19.6232C29.38 19.5855 29.3866 19.539 29.4154 19.4924C29.3356 19.4458 29.2647 19.4059 29.2048 19.3549C29.0917 19.2596 28.9032 19.1288 28.8079 19.1465C28.7126 19.1665 28.7126 18.9957 28.5618 19.0512C28.411 19.1066 28.1472 19.0512 28.0341 19.0512C27.921 19.0512 27.5618 18.9558 27.431 19.0512C27.3556 19.1044 27.2248 19.1288 27.1006 19.1376C27.1849 19.3084 27.1538 19.4835 27.0607 19.59C26.9942 19.6653 27.0319 19.6764 27.0807 19.7053C27.1827 19.6964 27.298 19.6764 27.3334 19.7274L27.3312 19.7296Z" fill="#C7DCFF"/>
<path id="Latvia" d="M28.0381 19.0511C28.1512 19.0511 28.415 19.1065 28.5658 19.0511C28.7166 18.9957 28.7166 19.1642 28.8119 19.1465C28.9072 19.1287 29.0957 19.2595 29.2088 19.3549C29.2687 19.4059 29.3396 19.4458 29.4194 19.4923C29.4372 19.4613 29.4616 19.4303 29.5015 19.4014C29.599 19.3283 29.6988 19.3637 29.7853 19.3637C29.8717 19.3637 29.8851 19.264 29.9449 19.2152C29.9804 19.1864 30.0336 19.1708 30.0757 19.162C30.0425 19.0932 30.0403 18.9602 29.9848 18.9048C29.9205 18.8405 29.8274 18.7296 29.8562 18.6631C29.8828 18.5988 29.8828 18.5057 29.8097 18.4325C29.7764 18.3992 29.752 18.3615 29.7387 18.3261C29.5879 18.3061 29.3862 18.2839 29.3396 18.2995C29.2664 18.3239 28.9693 18.0888 28.9205 18.0533C28.8895 18.029 28.6678 18.0423 28.4704 18.06C28.3574 18.1864 28.4394 18.2795 28.4327 18.4724C28.4261 18.6697 28.211 18.6321 28.0935 18.6321C27.976 18.6321 27.7853 18.2795 27.7232 18.1997C27.6611 18.1199 27.4638 18.2995 27.3219 18.3859C27.18 18.4724 27.2532 18.6387 27.1556 18.7185C27.0581 18.7983 26.996 18.9336 27.0935 19.1132C27.098 19.1198 27.1002 19.1287 27.1046 19.1354C27.2288 19.1265 27.3596 19.1021 27.435 19.0489C27.568 18.9536 27.925 19.0489 28.0381 19.0489V19.0511Z" fill="#C7DCFF"/>
<path id="Italy" d="M24.5453 28.8627C24.2925 28.9181 24.1883 28.9359 24.0397 28.8627C23.8912 28.7895 23.6517 28.9292 23.6872 29.029C23.7116 29.0977 23.8113 29.1842 24.1195 29.264C24.4277 29.3438 24.4654 29.5545 24.594 29.5611C24.7226 29.5678 24.7359 29.4436 24.7049 29.2773C24.6739 29.111 24.8601 28.9203 24.8778 28.8893C24.8956 28.8583 24.798 28.8095 24.5453 28.8649V28.8627ZM22.1573 27.4614C22.022 27.5789 21.9089 27.4414 21.8557 27.5346C21.787 27.6521 22.0664 27.8317 22.0109 28.0711C21.9555 28.3128 22.042 28.6144 22.1839 28.4725C22.3258 28.3306 22.3945 28.3993 22.4743 28.2929C22.5542 28.1886 22.4876 27.7984 22.5431 27.6144C22.5985 27.4281 22.297 27.3439 22.1595 27.4592L22.1573 27.4614ZM25.1816 27.2641C25.022 27.1643 25.1262 27.0046 24.8734 27.0179C24.6206 27.0312 24.3191 26.7164 24.226 26.3505C24.1328 25.9869 23.7382 25.967 23.6406 25.7519C23.5408 25.5368 23.7337 25.5102 23.6473 25.3328C23.5985 25.2331 23.7071 25.1444 23.8313 25.0956C23.8202 24.8982 23.8379 24.681 23.8535 24.5413C23.7559 24.5324 23.6717 24.5169 23.6406 24.4991C23.5941 24.4703 23.5852 24.324 23.5564 24.324C23.5275 24.324 23.2703 24.324 23.2238 24.3705C23.1772 24.4171 23.0397 24.4991 22.9643 24.4548C22.9488 24.4459 22.9311 24.4348 22.9134 24.426L22.8335 24.5014C22.8335 24.5014 22.8202 24.6011 22.7714 24.6011C22.7227 24.6011 22.6473 24.5634 22.6473 24.6499C22.6473 24.7364 22.512 24.712 22.45 24.6987C22.3879 24.6854 22.3014 24.712 22.3014 24.7852C22.3014 24.8583 22.2881 25.0202 22.1905 24.9337C22.093 24.8472 21.9932 24.6255 21.9555 24.6499C21.9178 24.6743 21.8313 24.947 21.7449 24.947C21.6916 24.947 21.5165 24.9603 21.3879 24.9714C21.3546 25.0778 21.3901 25.1421 21.4344 25.1687C21.481 25.1976 21.4056 25.3084 21.3502 25.335C21.2948 25.3639 21.2016 25.335 21.2659 25.437C21.3302 25.539 21.4522 25.5479 21.3857 25.6499C21.3214 25.7519 21.3857 25.845 21.4788 25.8539C21.5719 25.8627 21.7005 25.845 21.6739 25.9182C21.6584 25.9603 21.6318 26.0113 21.6273 26.0601C21.7005 26.0401 21.7648 26.0357 21.8291 26.0024C21.9577 25.9337 21.9023 25.8162 22.1196 25.7563C22.3346 25.6942 22.6185 25.8738 22.7049 26.0024C22.7914 26.131 22.8158 26.1443 22.8335 26.2486C22.8513 26.3528 22.9333 26.5634 23.2282 26.7541C23.5253 26.9448 23.6428 27.1621 23.7958 27.2419C23.951 27.3217 24.104 27.304 24.1971 27.4148C24.2903 27.5257 24.4122 27.5878 24.5608 27.6543C24.7093 27.723 24.716 27.8827 24.8579 27.9004C24.9998 27.9181 24.9067 28.0423 24.9931 28.1465C25.0796 28.2507 25.104 28.4747 25.0109 28.5966C24.9178 28.7208 24.9665 28.9292 25.0286 28.9292C25.0907 28.9292 25.2193 28.7075 25.2393 28.5833C25.257 28.4592 25.3812 28.4658 25.4809 28.3372C25.5785 28.2086 25.3324 28.1776 25.2903 28.0091C25.2459 27.8428 25.4765 27.6942 25.6916 27.8295C25.9067 27.9647 25.9953 28.0578 26.0064 27.8472C26.0197 27.6366 25.339 27.3594 25.1794 27.2618L25.1816 27.2641Z" fill="#C7DCFF"/>
<path id="Ireland" d="M15.7312 20.457C15.6802 20.4193 15.6314 20.3772 15.5938 20.3328C15.4341 20.1466 15.3698 20.2951 15.3521 20.4082C15.3343 20.5191 15.1836 20.3705 15.0904 20.3528C14.9973 20.3351 15.1193 20.1577 15.1836 20.1111C15.2279 20.0801 15.27 19.9936 15.2966 19.8739C15.2789 19.8739 15.2612 19.8717 15.2456 19.865C15.0727 19.7963 14.831 19.7963 14.8266 19.9515C14.8199 20.1067 15.0173 20.0512 15.0239 20.1488C15.0306 20.2486 14.8266 20.222 14.6847 20.3218C14.5428 20.4193 14.3876 20.253 14.2412 20.3284C14.0927 20.4016 14.4009 20.488 14.29 20.6433C14.1791 20.7962 14.2967 20.7918 14.4807 20.9382C14.6669 21.0867 14.3698 21.1244 14.3698 21.2907C14.3698 21.457 14.1415 21.4503 14.0927 21.5612C14.0439 21.6721 14.29 21.8938 14.5073 21.8938C14.6625 21.8938 15.0195 21.794 15.2301 21.5967C15.4408 21.3993 15.5516 21.59 15.7423 21.4925C15.933 21.3927 15.8155 20.6721 15.7423 20.5235C15.729 20.4969 15.729 20.477 15.7357 20.4592L15.7312 20.457Z" fill="#C7DCFF"/>
<path id="Iceland" d="M13.8562 13.0092C14.1023 12.9936 14.0934 12.7209 14.1932 12.732C14.2952 12.7431 14.4571 12.5391 14.5169 12.4127C14.6943 12.0447 13.9737 12.0957 14.0557 11.8562C14.0868 11.7675 13.9715 11.6544 13.9759 11.5923C13.9804 11.528 13.7852 11.5879 13.6855 11.6145C13.5679 11.6456 13.4526 11.4438 13.3351 11.4393C13.1467 11.4327 13.3063 11.6655 13.2243 11.6832C13.1156 11.7076 12.8562 11.7808 12.8008 11.7143C12.7232 11.6212 12.548 11.6788 12.5547 11.7564C12.5613 11.8318 12.4793 11.7697 12.3329 11.6832C12.1866 11.5968 12.038 11.7875 12.0513 11.8828C12.0647 11.9781 12.0026 12.0025 11.8806 11.7963C11.7587 11.5901 11.6212 11.8185 11.6855 11.9316C11.7498 12.0447 11.7276 12.1843 11.6301 12.1289C11.5347 12.0735 11.4083 12.1688 11.3529 12.2597C11.2975 12.3484 11.0913 12.0047 11.2354 11.9205C11.3795 11.8362 10.5214 11.3285 10.4837 11.5391C10.5126 11.6256 10.5658 11.6899 10.6456 11.7365C10.7742 11.8362 10.5591 11.8141 10.4882 11.7254C10.4172 11.6389 10.2864 11.7099 10.211 11.8362C10.1379 11.9626 10.0115 12.0336 10.0004 12.1245C9.9893 12.2132 10.2177 12.3041 10.4128 12.2198C10.6079 12.1356 10.8296 12.12 10.9316 12.2132C11.0336 12.3063 10.7498 12.3484 10.8518 12.4238C10.9538 12.4992 10.8718 12.5613 10.6323 12.5458C10.3928 12.5302 10.1024 12.6034 10.1467 12.6854C10.1911 12.7675 10.7587 12.6078 10.7653 12.6899C10.772 12.7719 10.7676 12.9116 10.9183 12.8451C11.0691 12.7808 10.9693 12.9582 11.0469 12.9892C11.1223 13.0203 11.1068 13.171 10.905 13.1865C10.7033 13.2021 10.6057 13.2442 10.6922 13.3284C10.8008 13.4349 11.0203 13.3551 11.2354 13.3018C11.4505 13.2486 11.7631 13.5036 12.0159 13.6012C12.2709 13.6987 12.7032 13.5546 12.752 13.4216C12.8008 13.2885 13.1422 13.3351 13.2797 13.2375C13.4172 13.14 13.6056 13.0247 13.8518 13.0092H13.8562Z" fill="#C7DCFF"/>
<path id="Hungary" d="M27.7516 23.7095C27.7206 23.6984 27.6851 23.6763 27.6541 23.6497C27.5388 23.6231 27.4257 23.5898 27.3924 23.5565C27.3237 23.4878 27.0465 23.4457 27.0066 23.4324C26.9645 23.4191 26.7029 23.6807 26.6208 23.6807C26.5388 23.6807 26.1796 23.7228 26.1796 23.8182C26.1796 23.9135 25.7383 23.929 25.6142 23.8182C25.5942 23.8004 25.5765 23.7783 25.5588 23.7517C25.5255 23.7827 25.5033 23.8204 25.5033 23.8625C25.5033 23.9889 25.4058 23.9778 25.3193 23.969C25.2328 23.9601 25.3193 24.0754 25.2705 24.133C25.2217 24.1907 25.2705 24.3082 25.2018 24.3171C25.1663 24.3215 25.1463 24.3636 25.1353 24.4146C25.1641 24.4279 25.235 24.5698 25.235 24.5698L25.2262 24.5787C25.3193 24.6341 25.5122 24.7561 25.5743 24.8381C25.6563 24.949 25.8913 24.9623 26.0022 24.9357C26.1131 24.9068 26.5809 24.7561 26.5809 24.7561C26.5809 24.7561 26.6918 24.7982 26.7605 24.8115C26.776 24.8137 26.8204 24.8226 26.878 24.8315C26.9113 24.796 27.0155 24.7672 27.1264 24.6563C27.255 24.5277 27.4501 24.0643 27.5055 24.0266C27.5609 23.9889 27.7095 23.9069 27.7827 23.8514C27.8558 23.796 27.8381 23.7406 27.7561 23.7118L27.7516 23.7095Z" fill="#C7DCFF"/>
<path id="Greece" d="M29.3292 27.0554C29.2361 27.0643 29.1075 27.0998 29.1297 27.1508C29.154 27.2128 29.0676 27.2505 28.97 27.2505C28.97 27.2505 28.6241 27.2261 28.5266 27.1774C28.4512 27.1397 28.1208 27.1596 27.9656 27.1707C27.9656 27.1774 27.9634 27.184 27.9567 27.1907C27.919 27.2461 27.6241 27.3969 27.5687 27.3703C27.5133 27.3437 27.4845 27.4634 27.3736 27.49C27.2627 27.5166 27.0964 27.4811 27.0876 27.5277C27.0787 27.5743 27.0033 27.7029 26.939 27.7694C26.8747 27.8337 26.9301 27.9091 26.837 27.9268C26.7749 27.9401 26.7505 28.0532 26.7173 28.153C26.7239 28.1552 26.7284 28.1596 26.735 28.1618C26.8703 28.204 26.9745 28.3658 26.9567 28.5188C26.939 28.674 27.1541 28.7294 27.2539 28.6186C27.3536 28.5077 27.6308 28.6807 27.6308 28.7538C27.6308 28.827 27.347 28.674 27.1873 28.7915C27.0277 28.909 27.3115 29.0199 27.2738 29.1441C27.2361 29.2682 27.347 29.4412 27.4889 29.4345C27.6308 29.4279 27.7904 29.6629 27.8769 29.6208C27.9634 29.5787 27.7727 29.2505 27.8037 29.2017C27.8348 29.1529 28.0077 29.2882 28.0942 29.1884C28.1807 29.0886 28.0321 29.0155 27.9035 29.0221C27.7727 29.0288 27.8969 28.8492 28.0521 28.9423C28.2051 29.0354 28.2805 28.9179 28.3536 28.9046C28.4268 28.8935 28.4467 28.6275 28.2184 28.5654C27.99 28.5033 28.021 28.7317 27.8725 28.5787C27.7239 28.4235 28.0077 28.4856 28.0077 28.357C28.0077 28.2284 27.7794 28.0421 27.6685 27.8869C27.5576 27.7317 27.8237 27.6585 27.8836 27.7694C27.9456 27.8802 28.1119 27.8625 28.2162 27.8182C28.3204 27.776 28.1053 27.5787 28.296 27.5033C28.4867 27.4301 28.4867 27.5587 28.5487 27.5831C28.6108 27.6075 28.6663 27.4279 28.8636 27.4279C28.9656 27.4279 29.0565 27.4967 29.1452 27.561C29.1984 27.5011 29.2427 27.4678 29.2427 27.4168C29.2427 27.3525 29.3625 27.3237 29.3625 27.2217C29.3625 27.1729 29.3425 27.1109 29.3292 27.0576V27.0554ZM28.9811 30.1684C28.8813 30.113 28.4379 30.2061 28.3204 30.0953C28.2028 29.9844 27.9634 30.184 28.0676 30.1995C28.2161 30.2239 28.4379 30.3547 28.6796 30.3591C28.9212 30.3658 29.2472 30.2483 29.2405 30.1862C29.2339 30.1241 29.0809 30.2239 28.9811 30.1684Z" fill="#C7DCFF"/>
<path id="Germany" d="M21.4609 21.0778C21.3612 21.2263 21.2259 21.2374 21.2503 21.2751C21.2747 21.3128 21.4232 21.4348 21.3856 21.4968C21.3479 21.5589 21.2991 21.5212 21.2991 21.6321C21.2991 21.743 21.1261 21.743 21.0641 21.743C21.002 21.743 21.0774 21.8538 21.0397 21.9403C21.002 22.0268 21.002 22.1997 20.9909 22.2729C20.9798 22.3461 21.115 22.4702 21.1017 22.5323C21.0907 22.5944 20.9909 22.6432 21.0153 22.6919C21.0397 22.7385 21.1283 22.8095 21.1483 23.0378C21.1904 23.0511 21.2259 23.0667 21.2414 23.0866C21.2969 23.1598 21.39 23.2152 21.5097 23.2152C21.6294 23.2152 21.676 23.2995 21.7314 23.2884C21.7869 23.2795 21.9354 23.3261 21.8157 23.4281C21.696 23.5301 21.676 23.6498 21.6494 23.7695C21.6317 23.8471 21.6317 23.9558 21.6139 24.0223C21.7314 24.0334 21.9044 24.0423 21.9687 24.009C22.0685 23.9602 22.1283 23.9602 22.2525 23.9979C22.3257 24.0201 22.4254 24.0689 22.4942 24.1043C22.5008 24.0799 22.5141 24.06 22.5407 24.0578C22.625 24.0489 22.727 24.2152 22.7824 24.1221C22.8379 24.029 22.9687 24.0489 23.033 24.0844C23.0973 24.1221 23.1993 24.1398 23.2747 24.0666C23.3478 23.9935 23.6361 23.9558 23.7004 23.9824C23.7647 24.0112 23.931 24.0844 23.8667 23.8627C23.8024 23.6409 24.0063 23.6875 24.033 23.6032C24.0596 23.519 24.3012 23.4835 24.2636 23.417C24.2259 23.3527 23.9221 23.1576 23.829 23.0933C23.7358 23.029 23.7358 22.825 23.6893 22.7407C23.6427 22.6565 23.5407 22.5456 23.6627 22.519C23.7824 22.4902 23.9953 22.4458 24.0973 22.3527C24.1993 22.2596 24.3833 22.2507 24.4387 22.1953C24.4941 22.1399 24.625 22.2418 24.6604 22.1864C24.6981 22.131 24.7247 22.0201 24.6693 21.9536C24.6139 21.8893 24.5762 21.7784 24.5673 21.621C24.5584 21.4636 24.5119 21.4725 24.5119 21.3993C24.5119 21.3261 24.4853 21.233 24.4188 21.1953C24.3545 21.1576 24.3256 21.131 24.3899 21.029C24.4542 20.927 24.4276 20.6676 24.3988 20.5944C24.3944 20.5789 24.3944 20.5634 24.3988 20.5434C24.3833 20.5346 24.37 20.519 24.3633 20.4924C24.3456 20.3927 24.2769 20.3572 24.1172 20.3572C23.9576 20.3572 24.217 20.1975 24.1549 20.1177C24.0928 20.0379 23.9332 20.2663 23.7846 20.2153C23.6361 20.1665 23.4454 20.3882 23.3146 20.488C23.186 20.5856 22.9997 20.4703 23.0995 20.3284C23.1971 20.1864 23.0995 20.1998 22.9509 20.2552C22.8024 20.3106 22.6228 20.2419 22.6427 20.1066C22.6472 20.0712 22.6361 20.0401 22.6183 20.0113C22.5452 20.0202 22.4897 20.0246 22.4631 20.0157C22.3966 19.9935 22.2459 19.9825 22.0818 19.978C22.1306 20.049 22.1838 20.1199 22.1549 20.1754C22.0995 20.2796 22.186 20.3794 22.2658 20.5346C22.3456 20.6898 22.0929 20.6033 22.0862 20.7009C22.0796 20.8006 21.8512 20.6942 21.778 20.6587C21.7048 20.621 21.4565 20.6454 21.4632 20.7075C21.4654 20.7319 21.4632 20.7674 21.4499 20.794C21.4831 20.9137 21.4986 21.0246 21.4632 21.0778H21.4609Z" fill="#C7DCFF"/>
<path id="France" d="M21.736 23.2951C21.6806 23.304 21.634 23.2219 21.5143 23.2219C21.3946 23.2219 21.3014 23.1665 21.246 23.0933C21.1906 23.0201 20.9046 23.0002 20.8114 23.0201C20.7183 23.0379 20.6917 22.8627 20.5986 22.8805C20.5055 22.8982 20.4788 22.7607 20.4788 22.6853C20.4788 22.61 20.3769 22.7408 20.2948 22.7785C20.2106 22.8162 20.1839 22.6942 20.1751 22.6388C20.1662 22.5833 19.9999 22.5279 19.9157 22.4814C19.8314 22.4348 19.7405 22.2862 19.7028 22.3527C19.6651 22.417 19.5631 22.2596 19.5543 22.1953C19.5476 22.151 19.5188 22.1665 19.501 22.1399C19.47 22.1465 19.4367 22.151 19.4057 22.1488C19.2571 22.1421 19.1285 22.2596 19.1529 22.508C19.1773 22.7541 18.9733 22.7785 18.7206 22.7984C18.4678 22.8162 18.5543 23.0135 18.4501 23.0955C18.3458 23.1754 17.9756 23.0534 17.9246 22.9159C17.8758 22.7807 17.541 22.9159 17.6829 23.0756C17.8248 23.2352 17.8181 23.4592 17.7383 23.519C17.6585 23.5811 17.4856 23.4215 17.3747 23.5013C17.2638 23.5811 17.2572 23.4281 17.1219 23.3771C16.9867 23.3283 16.9312 23.4392 16.7139 23.4215C16.4989 23.4037 16.3747 23.5257 16.4545 23.6188C16.5343 23.7119 16.4412 23.7984 16.5033 23.8782C16.5654 23.958 16.8492 23.9447 17.0598 24.0578C17.2705 24.1687 17.3193 24.0756 17.4235 24.1576C17.5277 24.2374 17.5521 24.1886 17.5587 24.3438C17.5654 24.4991 17.6829 24.6454 17.8869 24.703C18.0909 24.7585 17.9357 24.8937 17.9977 25.029C18.0598 25.1642 17.9046 25.3616 17.9357 25.5279C17.9667 25.6942 17.8359 26.2307 17.7383 26.2817C17.7317 26.2839 17.7228 26.2862 17.7139 26.2862C17.8071 26.3327 17.9046 26.3726 17.9512 26.4037C18.0421 26.4635 18.2372 26.5234 18.3569 26.5988C18.4767 26.6742 18.6873 26.6587 18.6873 26.5678C18.6873 26.4768 18.807 26.5367 18.8824 26.6121C18.9578 26.6875 19.2438 26.703 19.3791 26.7318C19.4922 26.7562 19.6585 26.7407 19.807 26.7451C19.8026 26.7119 19.7937 26.6764 19.7826 26.6387C19.7095 26.397 19.9245 26.2551 20.1285 26.2241C20.3325 26.193 20.776 26.3172 20.8935 26.3904C21.011 26.4635 21.1706 26.4458 21.3746 26.2307C21.4766 26.1221 21.5609 26.0822 21.6363 26.06C21.6407 26.0112 21.6673 25.9624 21.6828 25.9181C21.7116 25.8449 21.5808 25.8627 21.4877 25.8538C21.3946 25.8449 21.3303 25.7518 21.3946 25.6498C21.4589 25.5478 21.3391 25.5389 21.2748 25.4369C21.2105 25.335 21.3037 25.3638 21.3591 25.335C21.4145 25.3061 21.4877 25.1953 21.4433 25.1687C21.3968 25.1398 21.3591 25.0755 21.3968 24.9647C21.4345 24.8538 21.3236 24.8449 21.3236 24.7607C21.3236 24.6764 21.2216 24.641 21.1374 24.743C21.0531 24.8449 21.0265 24.7718 21.0819 24.6033C21.1374 24.437 21.3325 24.3616 21.3502 24.2707C21.368 24.1775 21.4788 24.0955 21.5631 24.0955C21.6473 24.0955 21.6274 23.9004 21.6562 23.7807C21.6828 23.6609 21.7028 23.539 21.8225 23.4392C21.9422 23.3372 21.7937 23.2906 21.7382 23.2995L21.736 23.2951ZM22.3968 26.4369C22.328 26.4303 22.3103 26.5544 22.1374 26.6587C21.9644 26.7629 22.1374 27.2374 22.3103 27.2152C22.4899 27.1908 22.4655 26.4436 22.3968 26.4369Z" fill="#C7DCFF"/>
<path id="Finland" d="M30.8054 15.7075C30.9052 15.4858 31.3486 15.3128 31.4218 15.1155C31.4595 15.0179 31.4706 14.9669 31.3109 14.7829C31.1513 14.5966 30.7921 14.4747 30.781 14.3749C30.7677 14.2774 31.0515 14.2641 31.0404 14.1399C31.0271 14.0157 30.8808 14.0157 30.8187 13.9182C30.7566 13.8184 30.8918 13.7585 30.8808 13.7075C30.8675 13.6587 30.6834 13.6344 30.6701 13.5723C30.6568 13.5102 30.7943 13.5235 30.7677 13.4481C30.7433 13.3749 30.6191 13.2375 30.7056 13.1266C30.7921 13.0157 30.9761 13.1266 30.8409 12.8805C30.7056 12.6344 30.495 12.324 30.4462 12.2508C30.3974 12.1776 30.495 12.0535 30.5703 12.0047C30.6435 11.9559 30.8298 11.7696 30.8298 11.6965C30.8298 11.6233 30.5947 11.426 30.5326 11.3883C30.4706 11.3506 30.3353 11.3639 30.2732 11.2397C30.2112 11.1156 30.1491 11.0801 30.2112 11.0047C30.2732 10.9315 30.2732 10.8561 30.2732 10.783C30.2732 10.7098 30.4085 10.7697 30.4329 10.6588C30.444 10.6078 30.4794 10.5524 30.526 10.5058C30.526 10.4216 30.5349 10.3306 30.526 10.273C30.506 10.1533 30.169 10.1156 30.0892 9.97588C30.0094 9.8362 29.812 9.89606 29.7522 9.97588C29.6923 10.0557 29.3353 9.95593 29.3353 10.0757C29.3353 10.1954 29.0781 10.2153 29.0781 10.3528C29.0781 10.4903 29.1979 10.7298 28.9983 10.7098C28.7988 10.6898 28.9384 10.7896 28.8187 10.947C28.699 11.1067 28.699 10.8473 28.5815 10.8872C28.4617 10.9271 28.3243 10.7674 28.2644 10.8672C28.2045 10.967 28.0072 10.8872 27.8076 10.8473C27.6103 10.8074 27.5105 10.5302 27.3509 10.5102C27.2467 10.4969 27.1336 10.5812 27.0737 10.7142C27.2267 10.814 27.3287 10.9559 27.5283 11.0468C27.7456 11.1466 28.1424 11.2641 28.1225 11.4038C28.1025 11.5435 28.0427 11.7408 28.1424 11.8007C28.2422 11.8606 28.1225 12.1178 28.2422 12.1776C28.362 12.2375 28.3221 12.5346 28.2223 12.5346C28.1225 12.5346 28.2422 12.692 28.3021 12.7519C28.3287 12.7785 28.3509 12.8605 28.362 12.9581C28.4839 12.9869 28.5926 13.049 28.699 13.0956C28.8653 13.1687 28.8409 13.2862 28.8475 13.4171C28.8542 13.5479 28.8586 13.6211 28.7744 13.5656C28.6879 13.5102 28.5948 13.5656 28.546 13.7519C28.4972 13.9381 28.2622 14.1598 28.1203 14.1709C27.9784 14.1842 27.9895 14.3306 27.8742 14.3616C27.7566 14.3927 27.6458 14.4614 27.6524 14.59C27.6591 14.7208 27.4795 14.7319 27.362 14.7319C27.2445 14.7319 27.2689 14.9425 27.1757 14.998C27.0826 15.0534 27.1026 15.1288 27.189 15.2396C27.2755 15.3505 27.2023 15.4503 27.2312 15.5301C27.2622 15.6099 27.3975 15.7962 27.3043 16.0002C27.2112 16.2042 27.1136 16.4569 27.1935 16.4325C27.2733 16.4081 27.4595 16.5988 27.5815 16.5877C27.7056 16.5744 27.7167 16.7607 27.8343 16.723C27.9518 16.6853 27.9518 16.8339 28.291 16.8228C28.6302 16.8095 29.3154 16.5257 29.5881 16.5257C29.7411 16.5257 29.8653 16.5079 29.9628 16.4835C30.0205 16.3948 30.0914 16.3017 30.1624 16.2308C30.3353 16.0578 30.7056 15.9336 30.8032 15.7119L30.8054 15.7075Z" fill="#C7DCFF"/>
<path id="Estonia" d="M29.8798 17.3971C29.9308 17.2863 30.0638 17.2685 29.964 17.1222C29.9463 17.1377 29.9174 17.1532 29.8731 17.1643C29.6935 17.2131 29.3055 17.0401 29.0838 17.0845C28.862 17.1266 28.4119 17.1266 28.3055 17.2397C28.2013 17.3506 27.9352 17.3816 28.0527 17.4814C28.1703 17.5812 28.0527 17.6299 28.1392 17.7475C28.2257 17.865 28.27 17.9137 28.3853 17.8894C28.5028 17.865 28.596 17.9271 28.4718 18.0557C28.4718 18.0579 28.4696 18.0601 28.4674 18.0623C28.6647 18.0446 28.8842 18.0313 28.9175 18.0557C28.9662 18.0933 29.2634 18.3284 29.3365 18.3018C29.3809 18.2862 29.5849 18.3084 29.7356 18.3284C29.7179 18.2818 29.7201 18.2397 29.7512 18.2131C29.8066 18.1665 29.9263 18.1665 29.862 18.0734C29.7977 17.9803 29.7778 17.9625 29.7689 17.8517C29.76 17.7408 29.7312 17.6854 29.7423 17.61C29.7512 17.5368 29.8265 17.5169 29.882 17.3971H29.8798ZM27.6958 17.6965C27.474 17.7585 27.4408 18.0645 27.5295 18.0601C27.6403 18.0534 27.8931 17.845 27.9618 17.7763C28.0283 17.7075 27.9175 17.6344 27.6958 17.6965ZM27.8798 17.5169C27.9286 17.4237 27.5228 17.4636 27.6137 17.5479C27.6825 17.61 27.8288 17.61 27.8798 17.5169Z" fill="#C7DCFF"/>
<path id="Denmark" d="M22.8082 18.9425C22.7461 18.9115 22.7218 18.7142 22.7949 18.6521C22.8681 18.59 22.8991 18.355 22.8393 18.2929C22.7772 18.2308 22.5555 18.2929 22.5377 18.4592C22.52 18.6255 22.3404 18.5523 22.2916 18.59C22.2428 18.6277 22.3892 18.7009 22.3093 18.7763C22.2295 18.8494 22.1985 18.6654 22.0677 18.6521C21.9391 18.6388 21.9258 18.8494 21.857 18.9536C21.7883 19.0578 21.8326 19.2796 21.857 19.4281C21.8814 19.5767 22.061 19.6698 22.0167 19.7918C21.9967 19.8494 22.0366 19.9137 22.081 19.9758C22.245 19.9802 22.3958 19.9913 22.4623 20.0135C22.4889 20.0223 22.5444 20.0201 22.6175 20.009C22.5643 19.9204 22.4424 19.8494 22.4513 19.7851C22.4646 19.6986 22.5799 19.7541 22.6663 19.8272C22.7528 19.9004 22.9435 19.9137 22.9634 19.8206C22.9745 19.7629 22.9324 19.4991 22.8149 19.5612C22.6974 19.6232 22.6663 19.5989 22.6242 19.5368C22.5821 19.4747 22.7107 19.3771 22.7417 19.2774C22.7728 19.1798 22.9767 19.2153 23.0078 19.1354C23.0388 19.0556 22.8725 18.9692 22.8104 18.9381L22.8082 18.9425ZM23.7395 19.3195C23.6907 19.2884 23.653 19.406 23.5976 19.4193C23.5421 19.4326 23.4801 19.1842 23.4557 19.3195C23.4313 19.4547 23.3071 19.264 23.1852 19.437C23.061 19.6099 23.2583 19.7651 23.3448 19.8206C23.4313 19.876 23.3382 19.9558 23.2273 19.9314C23.1164 19.9071 23.1852 20.0911 23.3382 20.1155C23.4934 20.1399 23.6597 19.845 23.6397 19.7696C23.622 19.6964 23.7971 19.355 23.7395 19.3195Z" fill="#C7DCFF"/>
<path id="Czech" d="M26.0379 22.7562C25.9691 22.7141 25.7762 22.7429 25.7629 22.6875C25.7496 22.632 25.7363 22.5367 25.6521 22.5367C25.5678 22.5367 25.4592 22.4813 25.417 22.5788C25.3749 22.6742 25.2108 22.55 25.1953 22.4813C25.182 22.4125 25.1133 22.3571 24.9204 22.2884C24.8428 22.2618 24.7563 22.2063 24.6787 22.1487C24.672 22.1642 24.6654 22.1797 24.6565 22.193C24.6188 22.2485 24.4902 22.1465 24.4348 22.2019C24.3794 22.2573 24.1931 22.2662 24.0933 22.3593C23.9913 22.4524 23.7785 22.499 23.6588 22.5256C23.539 22.5522 23.641 22.6653 23.6854 22.7473C23.7319 22.8316 23.7319 23.0356 23.8251 23.0999C23.9182 23.1642 24.2242 23.3593 24.2596 23.4236C24.2663 23.4347 24.2619 23.4458 24.2552 23.4546C24.3838 23.4901 24.5834 23.4901 24.6188 23.4325C24.661 23.3637 24.6876 23.2396 24.6876 23.2396C24.6876 23.2396 24.9625 23.2396 25.0734 23.3637C25.1842 23.4879 25.3904 23.4059 25.3904 23.4059C25.3904 23.4059 25.4015 23.4413 25.4215 23.4901C25.4503 23.4214 25.4902 23.3615 25.5368 23.3549C25.6521 23.3371 25.8184 23.3216 25.9337 23.1553C25.9935 23.0688 26.0933 23.0023 26.1753 22.9558C26.1199 22.887 26.0911 22.7895 26.0379 22.7562Z" fill="#C7DCFF"/>
<path id="Croatia" d="M25.4612 26.1465C25.47 26.0733 25.1197 25.8693 25.1197 25.7318C25.1197 25.5944 24.9445 25.5389 24.9268 25.4458C24.9091 25.3527 25.0288 25.2707 25.1108 25.335C25.1929 25.3993 25.286 25.2418 25.3791 25.2795C25.4722 25.3172 26.0243 25.3438 26.0243 25.3438C26.0243 25.3438 26.1951 25.3926 26.4013 25.5345C26.3968 25.4968 26.3902 25.4636 26.3813 25.4436C26.3325 25.3283 26.3813 25.1953 26.2483 25.1443C26.1795 25.1177 26.1507 25.0002 26.1396 24.8915C26.0776 24.9115 26.0243 24.927 25.9955 24.9336C25.8847 24.9602 25.6496 24.9469 25.5676 24.8361C25.5055 24.754 25.3148 24.6343 25.2195 24.5767C25.1818 24.6099 25.0332 24.7363 24.9689 24.7452C24.8958 24.754 24.9401 24.9492 24.8669 24.9492C24.7938 24.9492 24.7383 25.08 24.7184 25.1354C24.7006 25.1908 24.5321 25.0977 24.459 25.1265C24.4057 25.1465 24.2505 25.1709 24.1641 25.1842C24.1774 25.2684 24.1707 25.3616 24.2394 25.3616C24.3503 25.3616 24.5543 25.3483 24.561 25.4968C24.5676 25.6454 24.8337 25.9713 24.9312 26.0844C25.0288 26.1953 25.2527 26.1709 25.2638 26.264C25.2771 26.3571 25.4368 26.4436 25.623 26.4547C25.674 26.4591 25.7339 26.4879 25.7982 26.5278C25.6696 26.3372 25.4523 26.1975 25.4589 26.1465H25.4612Z" fill="#C7DCFF"/>
<path id="Bulgaria" d="M29.6068 25.8314C29.5071 25.8181 29.1989 25.8314 29.1124 25.9179C29.0259 26.0043 28.9151 26.0531 28.8153 26.042C28.7155 26.0287 28.4317 26.0176 28.3718 26.0287C28.3097 26.042 27.9772 25.9667 27.9284 25.98C27.884 25.991 27.802 25.8381 27.6911 25.8203C27.6867 25.8336 27.6756 25.8469 27.6579 25.8602C27.5736 25.9157 27.5647 26.0642 27.6579 26.1485C27.751 26.2327 27.8707 26.4168 27.7865 26.4168C27.7022 26.4168 27.6379 26.5276 27.6468 26.583C27.6556 26.6385 27.6202 26.7582 27.6468 26.787C27.6756 26.8159 27.8685 26.9999 27.8774 27.0553C27.8862 27.1041 27.9661 27.1285 27.9594 27.1728C28.1146 27.1617 28.445 27.1418 28.5204 27.1795C28.6179 27.2283 28.9638 27.2527 28.9638 27.2527C29.0636 27.2527 29.1501 27.215 29.1235 27.1529C29.1035 27.0997 29.2321 27.0664 29.323 27.0575C29.3075 26.9999 29.2964 26.9533 29.3208 26.9422C29.3674 26.9245 29.6357 26.8868 29.7465 26.9422C29.8019 26.9711 29.8663 26.9422 29.915 26.9112C29.8995 26.8602 29.8862 26.8181 29.8574 26.8136C29.7886 26.8003 29.6844 26.5165 29.7709 26.4988C29.8574 26.4811 29.9682 26.1839 30.1035 26.1418C30.1567 26.1241 30.1811 26.093 30.19 26.0531C30.0725 26.0132 29.9572 25.9644 29.9372 25.9334C29.8995 25.8713 29.7022 25.8469 29.6046 25.8358L29.6068 25.8314Z" fill="#C7DCFF"/>
<path id="Bosnia" d="M26.0339 26.5565C26.0161 26.4744 26.2822 26.0931 26.3487 26.0931C26.4042 26.0931 26.4241 25.7272 26.4019 25.5365C26.1957 25.3946 26.025 25.3458 26.025 25.3458C26.025 25.3458 25.4729 25.3192 25.3798 25.2815C25.2889 25.2439 25.1958 25.4013 25.1115 25.337C25.0295 25.2727 24.9075 25.3547 24.9275 25.4478C24.9452 25.5387 25.1204 25.5942 25.1204 25.7339C25.1204 25.8736 25.4707 26.0753 25.4618 26.1485C25.4552 26.1995 25.6725 26.3392 25.8011 26.5299C25.8698 26.572 25.943 26.6296 26.0161 26.6873C26.0317 26.6252 26.0383 26.5786 26.0339 26.5565Z" fill="#C7DCFF"/>
<path id="Belgium" d="M19.5489 22.193C19.5577 22.2573 19.6597 22.4148 19.6974 22.3505C19.7351 22.2862 19.826 22.4347 19.9103 22.4791C19.9945 22.5256 20.1608 22.5811 20.1697 22.6365C20.1786 22.6919 20.2074 22.8117 20.2894 22.7762C20.3737 22.7385 20.4735 22.6099 20.4735 22.6831C20.4735 22.7562 20.5023 22.8959 20.5932 22.8782C20.6863 22.8604 20.7129 23.0356 20.806 23.0179C20.8238 23.0134 20.8459 23.0112 20.8726 23.0112C20.8615 22.8028 20.9369 22.703 21.0189 22.6565C21.0389 22.6188 21.0943 22.5811 21.1032 22.5367C21.1165 22.4746 20.979 22.3505 20.9923 22.2773C20.9923 22.2729 20.9923 22.2684 20.9923 22.264C20.9612 22.2396 20.9302 22.213 20.9014 22.1842C20.7883 22.0711 20.6752 22.0511 20.5998 21.9758C20.5245 21.9004 20.3914 21.8627 20.316 21.9381C20.2406 22.0135 20.0322 22.0711 19.9191 22.0711C19.8925 22.0711 19.8393 22.0511 19.7706 22.0179C19.6819 22.0689 19.5866 22.1177 19.4912 22.1376C19.5089 22.1642 19.5378 22.1487 19.5444 22.193H19.5489Z" fill="#C7DCFF"/>
<path id="Belarus" d="M31.6604 20.5435C31.5872 20.5257 31.5406 20.3572 31.4187 20.3129C31.2989 20.2663 31.3256 20.1178 31.2236 20.0535C31.1216 19.9892 31.1859 19.8583 31.177 19.7564C31.1681 19.6544 31.1947 19.4969 31.1393 19.4681C31.0839 19.4393 30.8533 19.3107 30.7513 19.3572C30.6493 19.4038 30.5761 19.4415 30.5296 19.3572C30.483 19.273 30.4187 19.2286 30.3167 19.2553C30.2147 19.2841 30.1504 19.2375 30.095 19.191C30.0861 19.1843 30.0795 19.1732 30.075 19.1599C30.0329 19.1688 29.9797 19.1843 29.9442 19.2131C29.8821 19.2619 29.871 19.3617 29.7846 19.3617C29.6981 19.3617 29.5983 19.324 29.5008 19.3994C29.401 19.4725 29.3766 19.559 29.3899 19.6211C29.4032 19.6832 29.4143 19.7807 29.3411 19.7807C29.2679 19.7807 29.279 19.8672 29.2059 19.8916C29.1327 19.916 29.0085 20.0269 28.9952 20.0889C28.9819 20.151 28.9819 20.2863 28.9331 20.2863C28.8844 20.2863 28.7114 20.3107 28.6604 20.3727C28.6116 20.4348 28.5495 20.4969 28.4498 20.4725C28.3988 20.4592 28.2635 20.4548 28.1438 20.4504C28.1438 20.4614 28.1438 20.4747 28.1416 20.488C28.095 20.6189 28.1327 20.7386 28.2059 20.8029C28.279 20.8672 28.3079 21.1266 28.2236 21.1643C28.1394 21.202 27.9819 21.3129 27.9819 21.3772C27.9819 21.4415 28.1482 21.4969 28.1216 21.59C28.1061 21.6432 28.1061 21.7364 28.115 21.8184C28.1926 21.8206 28.2702 21.8361 28.3389 21.7674C28.4121 21.6942 28.4498 21.6055 28.6094 21.6055C28.7691 21.6055 29.2524 21.6055 29.3256 21.692C29.3988 21.7785 29.5961 21.7031 29.7092 21.7541C29.8223 21.8051 29.9819 21.8517 29.993 21.7918C30.0063 21.7297 30.1526 21.8783 30.2657 21.8162C30.3766 21.7541 30.4763 21.9403 30.5384 21.9027C30.6005 21.865 30.8599 21.865 30.9198 21.927C30.9819 21.9891 30.993 21.865 30.993 21.7918C30.993 21.7186 31.2391 21.5213 31.2391 21.5213C31.2391 21.5213 31.4076 21.5124 31.5074 21.4681C31.4852 21.437 31.4652 21.3838 31.4453 21.2929C31.3987 21.0889 31.3256 20.9692 31.381 20.9027C31.4364 20.8384 31.5938 20.9869 31.6781 20.9492C31.7623 20.9115 31.9087 20.8384 31.891 20.7541C31.8732 20.6699 31.7335 20.559 31.6604 20.5413V20.5435Z" fill="#C7DCFF"/>
<path id="Austria" d="M25.0759 23.3637C24.965 23.2395 24.6901 23.2395 24.6901 23.2395C24.6901 23.2395 24.6635 23.3637 24.6213 23.4324C24.5859 23.4901 24.3863 23.4901 24.2577 23.4546C24.2222 23.5034 24.0537 23.5388 24.0316 23.6076C24.0027 23.6918 23.801 23.6453 23.8653 23.867C23.9296 24.0887 23.7633 24.0155 23.699 23.9867C23.6347 23.9601 23.3464 23.9956 23.2733 24.071C23.2001 24.1441 23.0981 24.1264 23.0316 24.0887C22.9673 24.051 22.8365 24.0333 22.781 24.1264C22.7256 24.2195 22.6236 24.0532 22.5393 24.0621C22.4551 24.071 22.4928 24.2484 22.4928 24.2838C22.4928 24.3193 22.6214 24.4324 22.7056 24.3947C22.7899 24.357 22.8919 24.4036 22.9651 24.4501C23.0382 24.4967 23.1779 24.4124 23.2245 24.3659C23.271 24.3193 23.5305 24.3193 23.5571 24.3193C23.5837 24.3193 23.5948 24.4679 23.6413 24.4945C23.6879 24.5233 23.863 24.541 24.0205 24.5499C24.1779 24.5588 24.4085 24.6342 24.4839 24.6342C24.5593 24.6342 24.679 24.5033 24.8453 24.5033C25.0116 24.5033 25.1047 24.4013 25.1313 24.4102C25.1446 24.3592 25.1624 24.3193 25.1978 24.3127C25.2666 24.3038 25.2178 24.1863 25.2666 24.1286C25.3153 24.071 25.2289 23.9535 25.3153 23.9645C25.4018 23.9734 25.4994 23.9845 25.4994 23.8581C25.4994 23.816 25.5216 23.7783 25.5548 23.7473C25.4595 23.6142 25.3907 23.3991 25.3907 23.3991C25.3907 23.3991 25.1845 23.4812 25.0737 23.357L25.0759 23.3637Z" fill="#C7DCFF"/>
<path id="Albany" d="M26.8353 27.9224C26.9284 27.9047 26.873 27.8293 26.9373 27.765C27.0016 27.7007 27.077 27.5699 27.0859 27.5233C27.0859 27.5189 27.0903 27.5145 27.0947 27.5122C26.9683 27.4169 26.8819 27.3504 26.853 27.2528C26.8242 27.153 26.853 26.9601 26.8974 26.8182C26.8264 26.7672 26.6047 26.6143 26.536 26.6143C26.4672 26.6143 26.3608 26.7672 26.3364 26.9136C26.4983 27.0001 26.5626 27.0621 26.4495 27.173C26.332 27.2905 26.3076 27.6852 26.4362 27.7894C26.5604 27.8892 26.5936 28.0887 26.7134 28.1442C26.7466 28.0444 26.7732 27.9313 26.8331 27.918L26.8353 27.9224Z" fill="#C7DCFF"/>
</g>
</g>
</svg>
