<svg xmlns="http://www.w3.org/2000/svg" width="28" height="28" viewBox="0 0 28 28" fill="none">
  <g clip-path="url(#clip0_685_1972)">
    <path d="M14 22.797C20.2952 22.797 25.3985 17.6937 25.3985 11.3985C25.3985 5.10329 20.2952 0 14 0C7.70476 0 2.60147 5.10329 2.60147 11.3985C2.60147 17.6937 7.70476 22.797 14 22.797Z" fill="#FF4F6B"/>
    <path d="M23.0952 16.3389H4.9031C4.52385 16.3389 4.17778 16.4801 3.91397 16.7126C5.82442 20.3302 9.62351 22.7962 13.9992 22.7962C18.3748 22.7962 22.1739 20.3302 24.0844 16.7126C23.8206 16.4802 23.4745 16.3389 23.0952 16.3389Z" fill="#FB2B3A"/>
    <path d="M13.9996 21.1131C19.3614 21.1131 23.708 16.7665 23.708 11.4047C23.708 6.04289 19.3614 1.69629 13.9996 1.69629C8.6378 1.69629 4.2912 6.04289 4.2912 11.4047C4.2912 16.7665 8.6378 21.1131 13.9996 21.1131Z" fill="white"/>
    <path d="M5.64612 16.3398C7.33924 19.1914 10.4498 21.1071 13.9998 21.1071C17.5498 21.1071 20.6604 19.1914 22.3535 16.3398H5.64612Z" fill="#F9F7F8"/>
    <path d="M23.0967 28.0063H4.90447C4.07759 28.0063 3.40729 27.336 3.40729 26.5091V19.5333C3.40729 18.7064 4.07759 18.0361 4.90447 18.0361H23.0966C23.9235 18.0361 24.5938 18.7064 24.5938 19.5333V26.5091C24.5939 27.336 23.9236 28.0063 23.0967 28.0063Z" fill="#FF4F6B"/>
    <path d="M23.0974 18.0361H21.4073C22.2342 18.0361 22.9045 18.7064 22.9045 19.5333V26.5091C22.9045 27.336 22.2342 28.0063 21.4073 28.0063H23.0974C23.9243 28.0063 24.5946 27.336 24.5946 26.5091V19.5333C24.5946 18.7064 23.9243 18.0361 23.0974 18.0361Z" fill="#FB2B3A"/>
    <path d="M8.39293 25.461C8.39211 25.461 8.39135 25.461 8.39053 25.461C7.91496 25.4636 7.23104 25.4662 6.80164 25.4658V20.1374C6.80164 19.904 6.61247 19.7148 6.37912 19.7148C6.14571 19.7148 5.9566 19.904 5.9566 20.1374V25.8835C5.9566 26.0893 6.10486 26.2652 6.30775 26.3C6.33778 26.3051 6.37256 26.3111 6.99616 26.3111C7.30011 26.3111 7.74406 26.3097 8.39539 26.306C8.62874 26.3047 8.81687 26.1145 8.81556 25.8811C8.81408 25.6485 8.62513 25.461 8.39293 25.461Z" fill="white"/>
    <path d="M10.6381 19.7148C10.4047 19.7148 10.2155 19.904 10.2155 20.1374V25.8884C10.2155 26.1218 10.4047 26.3109 10.6381 26.3109C10.8715 26.3109 11.0606 26.1217 11.0606 25.8884V20.1374C11.0606 19.904 10.8715 19.7148 10.6381 19.7148Z" fill="white"/>
    <path d="M21.6196 25.4309H19.641V23.4267H21.4426C21.676 23.4267 21.8651 23.2375 21.8651 23.0042C21.8651 22.7708 21.6759 22.5816 21.4426 22.5816H19.641V20.5775H21.6196C21.853 20.5775 22.0421 20.3883 22.0421 20.1549C22.0421 19.9216 21.8529 19.7324 21.6196 19.7324H19.2185C18.9851 19.7324 18.796 19.9216 18.796 20.1549V25.8534C18.796 26.0868 18.9851 26.2759 19.2185 26.2759H21.6196C21.853 26.2759 22.0421 26.0868 22.0421 25.8534C22.0421 25.6201 21.853 25.4309 21.6196 25.4309Z" fill="white"/>
    <path d="M17.1062 19.7473C16.885 19.6736 16.6455 19.7935 16.572 20.015L14.9662 24.8486L13.2829 19.9991C13.2064 19.7786 12.9655 19.6616 12.7452 19.7384C12.5247 19.815 12.408 20.0557 12.4845 20.2761L14.4518 25.9437C14.5301 26.1639 14.7389 26.3111 14.9723 26.3111H14.976C15.2109 26.3095 15.4196 26.159 15.4961 25.9338L17.3739 20.2814C17.4475 20.06 17.3276 19.8208 17.1062 19.7473Z" fill="white"/>
    <path d="M11.8515 14.5743V8.21514C11.8515 7.57109 12.5843 7.20107 13.1026 7.58345L17.4119 10.763C17.8371 11.0768 17.8371 11.7126 17.4119 12.0264L13.1026 15.206C12.5843 15.5884 11.8515 15.2184 11.8515 14.5743Z" fill="#FF4F6B"/>
    <path d="M17.4112 10.763L13.1019 7.58344C12.6623 7.25909 12.0686 7.47615 11.8983 7.94247C14.2224 9.65725 14.2224 13.1321 11.8983 14.8469C12.0686 15.3132 12.6623 15.5302 13.1019 15.2059L17.4112 12.0263C17.8364 11.7126 17.8364 11.0768 17.4112 10.763Z" fill="#FB2B3A"/>
  </g>
  <defs>
    <clipPath id="clip0_685_1972">
      <rect width="28" height="28" fill="white"/>
    </clipPath>
  </defs>
</svg>