<svg width="32" height="32" viewBox="0 0 32 32" fill="none" xmlns="http://www.w3.org/2000/svg">
<g clip-path="url(#clip0_20_454)">
<path d="M16 32C24.8366 32 32 24.8366 32 16C32 7.16344 24.8366 0 16 0C7.16344 0 0 7.16344 0 16C0 24.8366 7.16344 32 16 32Z" fill="#F0F0F0"/>
<path d="M15.3047 16.0001H32.0003C32.0003 14.5559 31.8078 13.157 31.4491 11.8262H15.3047V16.0001Z" fill="#D80027"/>
<path d="M15.3047 7.65245H29.6519C28.6725 6.0542 27.4203 4.64152 25.9601 3.47852H15.3047V7.65245Z" fill="#D80027"/>
<path d="M15.9999 32.0007C19.7654 32.0007 23.2265 30.6992 25.9597 28.5225H6.04004C8.77323 30.6992 12.2343 32.0007 15.9999 32.0007Z" fill="#D80027"/>
<path d="M2.34846 24.3478H29.6517C30.438 23.0648 31.0478 21.6622 31.4489 20.1738H0.55127C0.952332 21.6622 1.56214 23.0648 2.34846 24.3478Z" fill="#D80027"/>
<path d="M16 16C16 7.1635 16 6.12175 16 0C7.1635 0 0 7.1635 0 16H16Z" fill="#0052B4"/>
<path d="M10.6398 13.6951C8.45472 13.6951 6.68335 11.9237 6.68335 9.73864C6.68335 7.55358 8.45478 5.78214 10.6398 5.78214C11.3212 5.78214 11.9622 5.95445 12.5219 6.2577C11.6439 5.39914 10.4432 4.86914 9.1181 4.86914C6.42879 4.86914 4.24854 7.04933 4.24854 9.7387C4.24854 12.4281 6.42879 14.6083 9.1181 14.6083C10.4432 14.6083 11.6439 14.0783 12.5219 13.2197C11.9622 13.5228 11.3212 13.6951 10.6398 13.6951Z" fill="#FFDA44"/>
<path d="M11.7546 6.95605L12.4571 8.42493L14.0434 8.05843L13.333 9.52337L14.6088 10.5351L13.0204 10.8931L13.0248 12.5213L11.7546 11.5027L10.4844 12.5213L10.4888 10.8931L8.90039 10.5351L10.1761 9.52337L9.4657 8.05843L11.0521 8.42493L11.7546 6.95605Z" fill="#FFDA44"/>
</g>
<defs>
<clipPath id="clip0_20_454">
<rect width="32" height="32" fill="white"/>
</clipPath>
</defs>
</svg>
