<svg width="18" height="19" viewBox="0 0 18 19" fill="none" xmlns="http://www.w3.org/2000/svg">
    <path
        d="M13.1484 11.4258C13.8516 10.2734 14.2641 8.90625 14.2641 7.43652C14.2641 3.33008 11.0719 0 7.13437 0C3.19219 0 0 3.33008 0 7.43652C0 11.543 3.19219 14.873 7.12969 14.873C8.55938 14.873 9.89062 14.4336 11.0062 13.6816L11.3297 13.4473L16.4203 18.75L18 17.0752L12.9141 11.7725L13.1484 11.4258ZM11.1281 3.28125C12.1922 4.38965 12.7781 5.86426 12.7781 7.43164C12.7781 8.99902 12.1922 10.4736 11.1281 11.582C10.0641 12.6904 8.64844 13.3008 7.14375 13.3008C5.63906 13.3008 4.22344 12.6904 3.15937 11.582C2.09531 10.4736 1.50937 8.99902 1.50937 7.43164C1.50937 5.86426 2.09531 4.38965 3.15937 3.28125C4.22344 2.17285 5.63906 1.5625 7.14375 1.5625C8.64844 1.5625 10.0641 2.17285 11.1281 3.28125Z"
        fill="#a1a1aa" />
</svg>