<svg width="32" height="32" viewBox="0 0 32 32" fill="none" xmlns="http://www.w3.org/2000/svg">
<g clip-path="url(#clip0_20_468)">
<path d="M16 32C24.8366 32 32 24.8366 32 16C32 7.16344 24.8366 0 16 0C7.16344 0 0 7.16344 0 16C0 24.8366 7.16344 32 16 32Z" fill="#F0F0F0"/>
<path d="M0 16.0001C0 7.1635 7.1635 0 16 0C24.8365 0 32 7.1635 32 16.0001" fill="#D80027"/>
<path d="M9.73934 8.34802C9.73934 6.01689 11.3777 4.06952 13.5654 3.5917C13.2292 3.51833 12.8803 3.47852 12.5219 3.47852C9.83247 3.47852 7.65234 5.65864 7.65234 8.34808C7.65234 11.0375 9.83247 13.2176 12.5219 13.2176C12.8802 13.2176 13.2291 13.1778 13.5654 13.1044C11.3777 12.6266 9.73934 10.6792 9.73934 8.34802Z" fill="#F0F0F0"/>
<path d="M16 3.82617L16.3454 4.88898H17.4629L16.5587 5.54592L16.9041 6.60873L16 5.95192L15.0959 6.60873L15.4412 5.54592L14.5371 4.88898H15.6546L16 3.82617Z" fill="#F0F0F0"/>
<path d="M13.2892 5.91309L13.6345 6.97596H14.752L13.8479 7.63284L14.1933 8.69565L13.2892 8.03884L12.3849 8.69565L12.7304 7.63284L11.8262 6.97596H12.9437L13.2892 5.91309Z" fill="#F0F0F0"/>
<path d="M18.7114 5.91309L19.0568 6.97596H20.1743L19.2702 7.63284L19.6156 8.69565L18.7114 8.03884L17.8073 8.69565L18.1527 7.63284L17.2485 6.97596H18.366L18.7114 5.91309Z" fill="#F0F0F0"/>
<path d="M17.668 9.04395L18.0133 10.1068H19.1308L18.2267 10.7637L18.5721 11.8265L17.668 11.1697L16.7638 11.8265L17.1092 10.7637L16.2051 10.1068H17.3225L17.668 9.04395Z" fill="#F0F0F0"/>
<path d="M14.3326 9.04395L14.6779 10.1068H15.7955L14.8913 10.7637L15.2368 11.8265L14.3326 11.1697L13.4284 11.8265L13.7738 10.7637L12.8696 10.1068H13.9872L14.3326 9.04395Z" fill="#F0F0F0"/>
</g>
<defs>
<clipPath id="clip0_20_468">
<rect width="32" height="32" fill="white"/>
</clipPath>
</defs>
</svg>
